<svg width="15" height="14" viewBox="0 0 15 14" fill="none" xmlns="http://www.w3.org/2000/svg">
<path fill-rule="evenodd" clip-rule="evenodd" d="M0.625 6.99979C0.625 6.83403 0.690848 6.67506 0.808058 6.55785C0.925268 6.44064 1.08424 6.37479 1.25 6.37479H12.2417L7.68333 1.81646C7.57293 1.69798 7.51283 1.54127 7.51569 1.37936C7.51854 1.21744 7.58414 1.06295 7.69865 0.948439C7.81316 0.833928 7.96765 0.768335 8.12956 0.765478C8.29148 0.762621 8.44819 0.822724 8.56667 0.933124L14.1917 6.55812C14.3087 6.67531 14.3744 6.83417 14.3744 6.99979C14.3744 7.16542 14.3087 7.32427 14.1917 7.44146L8.56667 13.0665C8.50945 13.1279 8.44045 13.1771 8.36378 13.2113C8.28712 13.2454 8.20435 13.2638 8.12043 13.2653C8.03652 13.2668 7.95316 13.2513 7.87534 13.2199C7.79751 13.1885 7.72682 13.1417 7.66747 13.0823C7.60812 13.023 7.56133 12.9523 7.5299 12.8745C7.49846 12.7966 7.48303 12.7133 7.48451 12.6294C7.48599 12.5454 7.50436 12.4627 7.53852 12.386C7.57268 12.3093 7.62193 12.2403 7.68333 12.1831L12.2417 7.62479H1.25C1.08424 7.62479 0.925268 7.55894 0.808058 7.44173C0.690848 7.32452 0.625 7.16555 0.625 6.99979Z" fill="white"/>
</svg>
