<svg width="1281" height="805" viewBox="0 0 1281 805" fill="none" xmlns="http://www.w3.org/2000/svg">
<g style="mix-blend-mode:color-dodge" opacity="0.3">
<line x1="68.6759" y1="-265.432" x2="68.6759" y2="1321.95" stroke="white" stroke-width="0.539375"/>
<line x1="155.117" y1="-265.432" x2="155.117" y2="1321.95" stroke="white" stroke-width="0.539375"/>
<line x1="241.559" y1="-265.432" x2="241.559" y2="1321.95" stroke="white" stroke-width="0.539375"/>
<line x1="328.004" y1="-265.432" x2="328.004" y2="1321.95" stroke="white" stroke-width="0.539375"/>
<line x1="414.442" y1="-265.432" x2="414.441" y2="1321.95" stroke="white" stroke-width="0.539375"/>
<line x1="500.883" y1="-265.432" x2="500.883" y2="1321.95" stroke="white" stroke-width="0.539375"/>
<line x1="587.328" y1="-265.432" x2="587.328" y2="1321.95" stroke="white" stroke-width="0.539375"/>
<line x1="673.77" y1="-265.432" x2="673.77" y2="1321.95" stroke="white" stroke-width="0.539375"/>
<line x1="760.207" y1="-265.432" x2="760.207" y2="1321.95" stroke="white" stroke-width="0.539375"/>
<line x1="761.761" y1="-265.432" x2="761.761" y2="1321.95" stroke="white" stroke-width="0.539375"/>
<line x1="848.203" y1="-265.432" x2="848.203" y2="1321.95" stroke="white" stroke-width="0.539375"/>
<line x1="934.648" y1="-265.432" x2="934.648" y2="1321.95" stroke="white" stroke-width="0.539375"/>
<line x1="1021.09" y1="-265.432" x2="1021.09" y2="1321.95" stroke="white" stroke-width="0.539375"/>
<line x1="1107.53" y1="-265.432" x2="1107.53" y2="1321.95" stroke="white" stroke-width="0.539375"/>
<line x1="1193.97" y1="-265.432" x2="1193.97" y2="1321.95" stroke="white" stroke-width="0.539375"/>
<line x1="1280.41" y1="-265.432" x2="1280.41" y2="1321.95" stroke="white" stroke-width="0.539375"/>
<line x1="-235.903" y1="730.086" x2="1351.48" y2="730.086" stroke="white" stroke-width="0.539375"/>
<line x1="-235.903" y1="643.647" x2="1351.48" y2="643.647" stroke="white" stroke-width="0.539375"/>
<line x1="-235.903" y1="557.204" x2="1351.48" y2="557.204" stroke="white" stroke-width="0.539375"/>
<line x1="-235.903" y1="470.765" x2="1351.48" y2="470.765" stroke="white" stroke-width="0.539375"/>
<line x1="-235.903" y1="384.322" x2="1351.48" y2="384.322" stroke="white" stroke-width="0.539375"/>
<line x1="-235.903" y1="297.878" x2="1351.48" y2="297.878" stroke="white" stroke-width="0.539375"/>
<line x1="-235.903" y1="211.437" x2="1351.48" y2="211.437" stroke="white" stroke-width="0.539375"/>
<line x1="-235.903" y1="124.994" x2="1351.48" y2="124.994" stroke="white" stroke-width="0.539375"/>
<line x1="-235.903" y1="38.5546" x2="1351.48" y2="38.5546" stroke="white" stroke-width="0.539375"/>
</g>
</svg>
