<svg width="1283" height="1322" viewBox="0 0 1283 1322" fill="none" xmlns="http://www.w3.org/2000/svg">
<mask id="path-1-inside-1_1_2359" fill="white">
<path d="M0 10C0 4.47718 4.47715 0 10 0H1273C1278.52 0 1283 4.47715 1283 10V1555C1283 1560.52 1278.52 1565 1273 1565H10C4.47719 1565 0 1560.52 0 1555V10Z"/>
</mask>
<path d="M-1 10C-1 3.92487 3.92487 -1 10 -1H1273C1279.08 -1 1284 3.92487 1284 10H1282C1282 5.02944 1277.97 1 1273 1H10C5.02944 1 1 5.02944 1 10H-1ZM1283 1565H0H1283ZM10 1565C3.92487 1565 -1 1560.08 -1 1554V10C-1 3.92487 3.92487 -1 10 -1V1C5.02944 1 1 5.02944 1 10V1555C1 1560.52 5.02944 1565 10 1565ZM1273 -1C1279.08 -1 1284 3.92487 1284 10V1554C1284 1560.08 1279.08 1565 1273 1565C1277.97 1565 1282 1560.52 1282 1555V10C1282 5.02944 1277.97 1 1273 1V-1Z" fill="url(#paint0_linear_1_2359)" mask="url(#path-1-inside-1_1_2359)"/>
<defs>
<linearGradient id="paint0_linear_1_2359" x1="641.5" y1="-7.61317e-08" x2="642.256" y2="1347.3" gradientUnits="userSpaceOnUse">
<stop stop-color="#AAAAAA"/>
<stop offset="1" stop-color="#373737" stop-opacity="0"/>
</linearGradient>
</defs>
</svg>
