<svg width="51" height="307" viewBox="0 0 51 307" fill="none" xmlns="http://www.w3.org/2000/svg">
<path d="M22.8438 267.188L28.1562 272.5L22.8438 277.812" stroke="#373737" stroke-width="1.0625" stroke-linecap="round" stroke-linejoin="round"/>
<path fill-rule="evenodd" clip-rule="evenodd" d="M16.9319 163.992C16.8437 163.98 16.7591 163.957 16.6797 163.924C16.5927 163.888 16.5119 163.84 16.4394 163.782C16.3806 163.735 16.3272 163.682 16.2803 163.623C16.2224 163.551 16.1745 163.47 16.1384 163.383C16.1054 163.303 16.0824 163.219 16.0709 163.131C16.0654 163.088 16.0625 163.044 16.0625 163V159.75C16.6148 159.75 17.0625 160.198 17.0625 160.75V163H19.3125C19.8648 163 20.3125 163.448 20.3125 164H17.0625C17.0182 164 16.9747 163.997 16.9319 163.992ZM29.3125 164C29.3125 163.448 28.8648 163 28.3125 163H23.8125C23.2602 163 22.8125 163.448 22.8125 164H29.3125ZM36.0625 150.75C35.5102 150.75 35.0625 151.198 35.0625 151.75V156.25C35.0625 156.802 35.5102 157.25 36.0625 157.25V150.75ZM22.8125 144C22.8125 144.552 23.2602 145 23.8125 145H28.3125C28.8648 145 29.3125 144.552 29.3125 144H22.8125ZM16.0625 148.25C16.6148 148.25 17.0625 147.802 17.0625 147.25V145L19.3125 145C19.8648 145 20.3125 144.552 20.3125 144H17.0625C17.0182 144 16.9747 144.003 16.9319 144.008C16.8437 144.02 16.7591 144.043 16.6797 144.076C16.5927 144.112 16.5119 144.16 16.4394 144.218C16.3806 144.265 16.3272 144.318 16.2803 144.377C16.2224 144.449 16.1745 144.53 16.1384 144.617C16.1054 144.697 16.0824 144.781 16.0709 144.869C16.0654 144.912 16.0625 144.956 16.0625 145V148.25ZM16.0625 150.75C16.6148 150.75 17.0625 151.198 17.0625 151.75V156.25C17.0625 156.802 16.6148 157.25 16.0625 157.25V150.75ZM31.8125 144C31.8125 144.552 32.2602 145 32.8125 145H35.0625V147.25C35.0625 147.802 35.5102 148.25 36.0625 148.25V145C36.0625 144.956 36.0596 144.912 36.0541 144.869C36.0425 144.781 36.0196 144.697 35.9866 144.617C35.9506 144.53 35.9026 144.449 35.8447 144.377C35.7978 144.318 35.7444 144.265 35.6856 144.218C35.6131 144.16 35.5323 144.112 35.4453 144.076C35.3659 144.043 35.2813 144.02 35.1931 144.008C35.1503 144.003 35.1068 144 35.0625 144H31.8125ZM36.0625 159.75C35.5102 159.75 35.0625 160.198 35.0625 160.75V163H32.8125C32.2602 163 31.8125 163.448 31.8125 164H35.0625C35.1068 164 35.1503 163.997 35.1931 163.992C35.2813 163.98 35.3659 163.957 35.4453 163.924C35.5323 163.888 35.6131 163.84 35.6856 163.782C35.7444 163.735 35.7978 163.682 35.8447 163.623C35.9026 163.551 35.9506 163.47 35.9866 163.383C36.0196 163.303 36.0425 163.219 36.0541 163.131C36.0596 163.088 36.0625 163.044 36.0625 163V159.75Z" fill="#373737"/>
<path d="M22.2898 204.6C22.0946 204.404 22.0946 204.088 22.2898 203.893L25.536 200.646C25.7313 200.451 26.0478 200.451 26.2431 200.646L29.4893 203.893C29.6845 204.088 29.6845 204.404 29.4893 204.6L26.2431 207.846C26.0478 208.041 25.7313 208.041 25.536 207.846L22.2898 204.6ZM16.6464 210.243C16.4512 210.048 16.4512 209.731 16.6464 209.536L19.8926 206.29C20.0879 206.095 20.4045 206.095 20.5997 206.29L23.8459 209.536C24.0412 209.731 24.0412 210.048 23.8459 210.243L20.5997 213.489C20.4045 213.685 20.0879 213.685 19.8926 213.489L16.6464 210.243ZM22.4718 216.069C22.2766 215.873 22.2766 215.557 22.4718 215.362L25.718 212.115C25.9133 211.92 26.2298 211.92 26.4251 212.115L29.6713 215.362C29.8665 215.557 29.8665 215.873 29.6713 216.069L26.4251 219.315C26.2298 219.51 25.9133 219.51 25.718 219.315L22.4718 216.069ZM28.1153 210.425C27.92 210.23 27.92 209.913 28.1153 209.718L31.3615 206.472C31.5567 206.277 31.8733 206.277 32.0686 206.472L35.3148 209.718C35.51 209.913 35.51 210.23 35.3148 210.425L32.0686 213.671C31.8733 213.867 31.5567 213.867 31.3615 213.671L28.1153 210.425Z" stroke="#373737"/>
<path fill-rule="evenodd" clip-rule="evenodd" d="M20.4688 88C20.1926 88 19.9688 88.2239 19.9688 88.5V92.0156H16.5C16.2239 92.0156 16 92.2395 16 92.5156C16 92.7918 16.2239 93.0156 16.5 93.0156H19.9688V103.016H16.5C16.2239 103.016 16 103.239 16 103.516C16 103.792 16.2239 104.016 16.5 104.016H19.9688V107.5C19.9688 107.776 20.1926 108 20.4688 108C20.7449 108 20.9688 107.776 20.9688 107.5V104.016H30.9688V107.5C30.9688 107.776 31.1926 108 31.4688 108C31.7449 108 31.9688 107.776 31.9688 107.5V104.016H35.4375C35.7136 104.016 35.9375 103.792 35.9375 103.516C35.9375 103.239 35.7136 103.016 35.4375 103.016H31.9688V93.0156H35.4375C35.7136 93.0156 35.9375 92.7918 35.9375 92.5156C35.9375 92.2395 35.7136 92.0156 35.4375 92.0156H31.9688V88.5C31.9688 88.2239 31.7449 88 31.4688 88C31.1926 88 30.9688 88.2239 30.9688 88.5V92.0156L20.9688 92.0156V88.5C20.9688 88.2239 20.7449 88 20.4688 88ZM30.9688 103.016V93.0156L20.9688 93.0156V103.016L30.9688 103.016Z" fill="#373737"/>
<path d="M15.5234 31.5625V52.4375H36.4609V47.0625C36.4609 46.7864 36.2371 46.5625 35.9609 46.5625C35.6848 46.5625 35.4609 46.7864 35.4609 47.0625V51.4375H16.5234V32.5625H21.0234C21.2996 32.5625 21.5234 32.3386 21.5234 32.0625C21.5234 31.7864 21.2996 31.5625 21.0234 31.5625H15.5234Z" fill="#373737"/>
<path d="M19.9453 47.6094C19.9453 47.8855 20.1692 48.1094 20.4453 48.1094H28.9453C29.2215 48.1094 29.4453 47.8855 29.4453 47.6094C29.4453 47.3332 29.2215 47.1094 28.9453 47.1094L21.6524 47.1094L35.4766 33.2852L35.4766 40.5781C35.4766 40.8543 35.7004 41.0781 35.9766 41.0781C36.2527 41.0781 36.4766 40.8543 36.4766 40.5781L36.4766 32.0781C36.4766 31.802 36.2527 31.5781 35.9766 31.5781L27.4766 31.5781C27.2004 31.5781 26.9766 31.802 26.9766 32.0781C26.9766 32.3543 27.2004 32.5781 27.4766 32.5781L34.7695 32.5781L20.9453 46.4023L20.9453 39.1094C20.9453 38.8332 20.7215 38.6094 20.4453 38.6094C20.1692 38.6094 19.9453 38.8332 19.9453 39.1094L19.9453 47.6094Z" fill="#373737"/>
<rect x="0.5" y="0.5" width="50" height="306" rx="22.5" stroke="#191919"/>
<circle cx="26" cy="272" r="17.5" stroke="#373737"/>
</svg>
