<svg width="1280" height="63" viewBox="0 0 1280 63" fill="none" xmlns="http://www.w3.org/2000/svg">
<g clip-path="url(#clip0_1_2682)">
<path d="M13.5 38H12V36.5V35H10.5H9V33.5V32H10.5H12V30.5V29V27.5V26V24.5V23V21.5V20H13.5H15V21.5V23V24.5V26V27.5V29V30.5V32V33.5V35V36.5V38H13.5ZM1.5 38H0V36.5V35V33.5V32V30.5V29V27.5V26V24.5V23V21.5V20H1.5H3V21.5V23V24.5V26V27.5V29V30.5V32H4.5H6V33.5V35H4.5H3V36.5V38H1.5ZM9 32H7.5H6V30.5V29H7.5H9V30.5V32ZM29.5 38H28V36.5V35V33.5V32V30.5V29H26.5H25H23.5H22H20.5V30.5V32V33.5V35V36.5V38H19H17.5V36.5V35V33.5V32V30.5V29V27.5V26V24.5V23H19H20.5V24.5V26H22H23.5H25H26.5H28V24.5V23H29.5H31V24.5V26V27.5V29V30.5V32V33.5V35V36.5V38H29.5ZM28 23H26.5H25H23.5H22H20.5V21.5V20H22H23.5H25H26.5H28V21.5V23ZM50 38H48.5V36.5V35H50H51.5V36.5V38H50ZM35 38H33.5V36.5V35V33.5V32V30.5V29V27.5V26V24.5V23V21.5V20H35H36.5H38H39.5H41H42.5H44H45.5H47V21.5V23H48.5H50V24.5V26H48.5H47V24.5V23H45.5H44H42.5H41H39.5H38H36.5V24.5V26H38H39.5H41H42.5H44H45.5H47V27.5V29H45.5V30.5V32H47H48.5V33.5V35H47H45.5V33.5V32H44H42.5V30.5V29H41H39.5H38H36.5V30.5V32V33.5V35V36.5V38H35ZM67.5 38H66V36.5V35V33.5V32V30.5H64.5H63V29V27.5H64.5H66V26V24.5V23V21.5V20H67.5H69V21.5V23V24.5V26V27.5V29V30.5V32V33.5V35V36.5V38H67.5ZM55.5 38H54V36.5V35V33.5V32V30.5V29V27.5V26V24.5V23V21.5V20H55.5H57V21.5H58.5H60V23V24.5H61.5H63V26V27.5H61.5H60V26V24.5H58.5H57V26V27.5V29V30.5V32V33.5V35V36.5V38H55.5ZM77.5 38H76H74.5H73V36.5V35H74.5V33.5V32V30.5V29V27.5V26V24.5V23H73V21.5V20H74.5H76H77.5H79V21.5V23H77.5V24.5V26V27.5V29V30.5V32V33.5V35H79V36.5V38H77.5ZM95 38H93.5V36.5V35V33.5V32V30.5H92H90.5V29V27.5H92H93.5V26V24.5V23V21.5V20H95H96.5V21.5V23V24.5V26V27.5V29V30.5V32V33.5V35V36.5V38H95ZM83 38H81.5V36.5V35V33.5V32V30.5V29V27.5V26V24.5V23V21.5V20H83H84.5V21.5H86H87.5V23V24.5H89H90.5V26V27.5H89H87.5V26V24.5H86H84.5V26V27.5V29V30.5V32V33.5V35V36.5V38H83ZM111 38H109.5H108H106.5H105H103.5H102V36.5V35H103.5H105H106.5H108H109.5H111H112.5V36.5V38H111ZM112.5 35V33.5V32V30.5V29H111H109.5V27.5V26H111H112.5H114H115.5V27.5V29V30.5V32V33.5V35H114H112.5ZM102 35H100.5H99V33.5V32V30.5V29V27.5V26V24.5V23H100.5H102V24.5V26V27.5V29V30.5V32V33.5V35ZM114 23H112.5H111H109.5H108H106.5H105H103.5H102V21.5V20H103.5H105H106.5H108H109.5H111H112.5H114H115.5V21.5V23H114ZM121 38H119.5V36.5V35H121H122.5V36.5V38H121ZM121 27.5H119.5V26V24.5H121H122.5V26V27.5H121ZM145.5 38H144H142.5H141H139.5H138H136.5V36.5V35H138H139.5H141H142.5H144H145.5H147V36.5V38H145.5ZM147 35V33.5V32V30.5V29H145.5H144V27.5V26H145.5H147H148.5H150V27.5V29V30.5V32V33.5V35H148.5H147ZM136.5 35H135H133.5V33.5V32V30.5V29V27.5V26V24.5V23H135H136.5V24.5V26V27.5V29V30.5V32V33.5V35ZM148.5 23H147H145.5H144H142.5H141H139.5H138H136.5V21.5V20H138H139.5H141H142.5H144H145.5H147H148.5H150V21.5V23H148.5ZM169 38H167.5V36.5V35H169H170.5V36.5V38H169ZM154 38H152.5V36.5V35V33.5V32V30.5V29V27.5V26V24.5V23V21.5V20H154H155.5H157H158.5H160H161.5H163H164.5H166V21.5V23H167.5H169V24.5V26H167.5H166V24.5V23H164.5H163H161.5H160H158.5H157H155.5V24.5V26H157H158.5H160H161.5H163H164.5H166V27.5V29H164.5V30.5V32H166H167.5V33.5V35H166H164.5V33.5V32H163H161.5V30.5V29H160H158.5H157H155.5V30.5V32V33.5V35V36.5V38H154ZM185 38H183.5V36.5V35V33.5V32V30.5V29H182H180.5H179H177.5H176V30.5V32V33.5V35V36.5V38H174.5H173V36.5V35V33.5V32V30.5V29V27.5V26V24.5V23H174.5H176V24.5V26H177.5H179H180.5H182H183.5V24.5V23H185H186.5V24.5V26V27.5V29V30.5V32V33.5V35V36.5V38H185ZM183.5 23H182H180.5H179H177.5H176V21.5V20H177.5H179H180.5H182H183.5V21.5V23ZM190.5 38H189V36.5V35V33.5V32V30.5V29V27.5V26V24.5V23V21.5V20H190.5H192H193.5H195H196.5H198H199.5H201V21.5V23H202.5H204V24.5V26H202.5H201V24.5V23H199.5H198H196.5H195H193.5H192V24.5V26H193.5H195H196.5H198H199.5H201V27.5V29H199.5H198H196.5H195H193.5H192V30.5V32V33.5V35V36.5V38H190.5ZM220 38H218.5V36.5V35V33.5V32V30.5H217H215.5H214H212.5H211H209.5V32V33.5V35V36.5V38H208H206.5V36.5V35V33.5V32V30.5V29V27.5V26V24.5V23V21.5V20H208H209.5V21.5V23V24.5V26V27.5H211H212.5H214H215.5H217H218.5V26V24.5V23V21.5V20H220H221.5V21.5V23V24.5V26V27.5V29V30.5V32V33.5V35V36.5V38H220ZM230 38H228.5H227H225.5V36.5V35H227V33.5V32V30.5V29V27.5V26V24.5V23H225.5V21.5V20H227H228.5H230H231.5V21.5V23H230V24.5V26V27.5V29V30.5V32V33.5V35H231.5V36.5V38H230ZM247.5 38H246H244.5H243H241.5H240H238.5H237V36.5V35H238.5H240H241.5H243H244.5H246H247.5V33.5V32H249H250.5V33.5V35H249V36.5V38H247.5ZM237 35H235.5H234V33.5V32V30.5V29V27.5V26V24.5V23H235.5H237V24.5V26V27.5V29V30.5V32V33.5V35ZM249 26H247.5V24.5V23H246H244.5H243H241.5H240H238.5H237V21.5V20H238.5H240H241.5H243H244.5H246H247.5H249V21.5V23H250.5V24.5V26H249ZM275 38H273.5H272H270.5H269H267.5H266H264.5V36.5V35H266H267.5H269H270.5H272H273.5H275V33.5V32H276.5H278V33.5V35H276.5V36.5V38H275ZM264.5 35H263H261.5V33.5V32V30.5V29V27.5V26V24.5V23H263H264.5V24.5V26V27.5V29V30.5V32V33.5V35ZM276.5 26H275V24.5V23H273.5H272H270.5H269H267.5H266H264.5V21.5V20H266H267.5H269H270.5H272H273.5H275H276.5V21.5V23H278V24.5V26H276.5ZM294 38H292.5H291H289.5H288H286.5H285H283.5V36.5V35H285H286.5H288H289.5H291H292.5H294H295.5V36.5V38H294ZM295.5 35V33.5V32V30.5V29V27.5V26V24.5V23H297H298.5V24.5V26V27.5V29V30.5V32V33.5V35H297H295.5ZM283.5 35H282H280.5V33.5V32V30.5V29V27.5V26V24.5V23H282H283.5V24.5V26V27.5V29V30.5V32V33.5V35ZM295.5 23H294H292.5H291H289.5H288H286.5H285H283.5V21.5V20H285H286.5H288H289.5H291H292.5H294H295.5V21.5V23ZM314.5 38H313V36.5V35V33.5V32V30.5H311.5H310V29V27.5H311.5H313V26V24.5V23V21.5V20H314.5H316V21.5V23V24.5V26V27.5V29V30.5V32V33.5V35V36.5V38H314.5ZM302.5 38H301V36.5V35V33.5V32V30.5V29V27.5V26V24.5V23V21.5V20H302.5H304V21.5H305.5H307V23V24.5H308.5H310V26V27.5H308.5H307V26V24.5H305.5H304V26V27.5V29V30.5V32V33.5V35V36.5V38H302.5ZM326 38H324.5V36.5V35V33.5V32V30.5V29V27.5V26V24.5V23H323H321.5H320H318.5V21.5V20H320H321.5H323H324.5H326H327.5H329H330.5H332H333.5V21.5V23H332H330.5H329H327.5V24.5V26V27.5V29V30.5V32V33.5V35V36.5V38H326ZM349.5 38H348H346.5H345H343.5H342H340.5H339H337.5H336V36.5V35V33.5V32V30.5V29V27.5V26V24.5V23V21.5V20H337.5H339H340.5H342H343.5H345H346.5H348H349.5H351V21.5V23H349.5H348H346.5H345H343.5H342H340.5H339V24.5V26H340.5H342H343.5V27.5V29H342H340.5H339V30.5V32V33.5V35H340.5H342H343.5H345H346.5H348H349.5H351V36.5V38H349.5ZM367 38H365.5V36.5V35V33.5V32V30.5H364H362.5V29V27.5H364H365.5V26V24.5V23V21.5V20H367H368.5V21.5V23V24.5V26V27.5V29V30.5V32V33.5V35V36.5V38H367ZM355 38H353.5V36.5V35V33.5V32V30.5V29V27.5V26V24.5V23V21.5V20H355H356.5V21.5H358H359.5V23V24.5H361H362.5V26V27.5H361H359.5V26V24.5H358H356.5V26V27.5V29V30.5V32V33.5V35V36.5V38H355ZM378.5 38H377V36.5V35V33.5V32V30.5V29V27.5V26V24.5V23H375.5H374H372.5H371V21.5V20H372.5H374H375.5H377H378.5H380H381.5H383H384.5H386V21.5V23H384.5H383H381.5H380V24.5V26V27.5V29V30.5V32V33.5V35V36.5V38H378.5Z" fill="#23D503"/>
<path d="M412.001 29L409.27 20.126C415.802 22.0257 421.963 25.0268 427.486 29C421.963 32.9738 415.803 35.9755 409.271 37.876L412.001 29ZM412.001 29H419.501" stroke="#23D503" stroke-width="1.5" stroke-linecap="round" stroke-linejoin="round"/>
<path d="M461.5 38H460V36.5V35H458.5H457V33.5V32H458.5H460V30.5V29V27.5V26V24.5V23V21.5V20H461.5H463V21.5V23V24.5V26V27.5V29V30.5V32V33.5V35V36.5V38H461.5ZM449.5 38H448V36.5V35V33.5V32V30.5V29V27.5V26V24.5V23V21.5V20H449.5H451V21.5V23V24.5V26V27.5V29V30.5V32H452.5H454V33.5V35H452.5H451V36.5V38H449.5ZM457 32H455.5H454V30.5V29H455.5H457V30.5V32ZM477.5 38H476V36.5V35V33.5V32V30.5V29H474.5H473H471.5H470H468.5V30.5V32V33.5V35V36.5V38H467H465.5V36.5V35V33.5V32V30.5V29V27.5V26V24.5V23H467H468.5V24.5V26H470H471.5H473H474.5H476V24.5V23H477.5H479V24.5V26V27.5V29V30.5V32V33.5V35V36.5V38H477.5ZM476 23H474.5H473H471.5H470H468.5V21.5V20H470H471.5H473H474.5H476V21.5V23ZM498 38H496.5V36.5V35H498H499.5V36.5V38H498ZM483 38H481.5V36.5V35V33.5V32V30.5V29V27.5V26V24.5V23V21.5V20H483H484.5H486H487.5H489H490.5H492H493.5H495V21.5V23H496.5H498V24.5V26H496.5H495V24.5V23H493.5H492H490.5H489H487.5H486H484.5V24.5V26H486H487.5H489H490.5H492H493.5H495V27.5V29H493.5V30.5V32H495H496.5V33.5V35H495H493.5V33.5V32H492H490.5V30.5V29H489H487.5H486H484.5V30.5V32V33.5V35V36.5V38H483ZM515.5 38H514V36.5V35V33.5V32V30.5H512.5H511V29V27.5H512.5H514V26V24.5V23V21.5V20H515.5H517V21.5V23V24.5V26V27.5V29V30.5V32V33.5V35V36.5V38H515.5ZM503.5 38H502V36.5V35V33.5V32V30.5V29V27.5V26V24.5V23V21.5V20H503.5H505V21.5H506.5H508V23V24.5H509.5H511V26V27.5H509.5H508V26V24.5H506.5H505V26V27.5V29V30.5V32V33.5V35V36.5V38H503.5ZM525.5 38H524H522.5H521V36.5V35H522.5V33.5V32V30.5V29V27.5V26V24.5V23H521V21.5V20H522.5H524H525.5H527V21.5V23H525.5V24.5V26V27.5V29V30.5V32V33.5V35H527V36.5V38H525.5ZM543 38H541.5V36.5V35V33.5V32V30.5H540H538.5V29V27.5H540H541.5V26V24.5V23V21.5V20H543H544.5V21.5V23V24.5V26V27.5V29V30.5V32V33.5V35V36.5V38H543ZM531 38H529.5V36.5V35V33.5V32V30.5V29V27.5V26V24.5V23V21.5V20H531H532.5V21.5H534H535.5V23V24.5H537H538.5V26V27.5H537H535.5V26V24.5H534H532.5V26V27.5V29V30.5V32V33.5V35V36.5V38H531ZM559 38H557.5H556H554.5H553H551.5H550V36.5V35H551.5H553H554.5H556H557.5H559H560.5V36.5V38H559ZM560.5 35V33.5V32V30.5V29H559H557.5V27.5V26H559H560.5H562H563.5V27.5V29V30.5V32V33.5V35H562H560.5ZM550 35H548.5H547V33.5V32V30.5V29V27.5V26V24.5V23H548.5H550V24.5V26V27.5V29V30.5V32V33.5V35ZM562 23H560.5H559H557.5H556H554.5H553H551.5H550V21.5V20H551.5H553H554.5H556H557.5H559H560.5H562H563.5V21.5V23H562ZM569 38H567.5V36.5V35H569H570.5V36.5V38H569ZM569 27.5H567.5V26V24.5H569H570.5V26V27.5H569ZM593.5 38H592H590.5H589H587.5H586H584.5V36.5V35H586H587.5H589H590.5H592H593.5H595V36.5V38H593.5ZM595 35V33.5V32V30.5V29H593.5H592V27.5V26H593.5H595H596.5H598V27.5V29V30.5V32V33.5V35H596.5H595ZM584.5 35H583H581.5V33.5V32V30.5V29V27.5V26V24.5V23H583H584.5V24.5V26V27.5V29V30.5V32V33.5V35ZM596.5 23H595H593.5H592H590.5H589H587.5H586H584.5V21.5V20H586H587.5H589H590.5H592H593.5H595H596.5H598V21.5V23H596.5ZM617 38H615.5V36.5V35H617H618.5V36.5V38H617ZM602 38H600.5V36.5V35V33.5V32V30.5V29V27.5V26V24.5V23V21.5V20H602H603.5H605H606.5H608H609.5H611H612.5H614V21.5V23H615.5H617V24.5V26H615.5H614V24.5V23H612.5H611H609.5H608H606.5H605H603.5V24.5V26H605H606.5H608H609.5H611H612.5H614V27.5V29H612.5V30.5V32H614H615.5V33.5V35H614H612.5V33.5V32H611H609.5V30.5V29H608H606.5H605H603.5V30.5V32V33.5V35V36.5V38H602ZM633 38H631.5V36.5V35V33.5V32V30.5V29H630H628.5H627H625.5H624V30.5V32V33.5V35V36.5V38H622.5H621V36.5V35V33.5V32V30.5V29V27.5V26V24.5V23H622.5H624V24.5V26H625.5H627H628.5H630H631.5V24.5V23H633H634.5V24.5V26V27.5V29V30.5V32V33.5V35V36.5V38H633ZM631.5 23H630H628.5H627H625.5H624V21.5V20H625.5H627H628.5H630H631.5V21.5V23ZM638.5 38H637V36.5V35V33.5V32V30.5V29V27.5V26V24.5V23V21.5V20H638.5H640H641.5H643H644.5H646H647.5H649V21.5V23H650.5H652V24.5V26H650.5H649V24.5V23H647.5H646H644.5H643H641.5H640V24.5V26H641.5H643H644.5H646H647.5H649V27.5V29H647.5H646H644.5H643H641.5H640V30.5V32V33.5V35V36.5V38H638.5ZM668 38H666.5V36.5V35V33.5V32V30.5H665H663.5H662H660.5H659H657.5V32V33.5V35V36.5V38H656H654.5V36.5V35V33.5V32V30.5V29V27.5V26V24.5V23V21.5V20H656H657.5V21.5V23V24.5V26V27.5H659H660.5H662H663.5H665H666.5V26V24.5V23V21.5V20H668H669.5V21.5V23V24.5V26V27.5V29V30.5V32V33.5V35V36.5V38H668ZM678 38H676.5H675H673.5V36.5V35H675V33.5V32V30.5V29V27.5V26V24.5V23H673.5V21.5V20H675H676.5H678H679.5V21.5V23H678V24.5V26V27.5V29V30.5V32V33.5V35H679.5V36.5V38H678ZM695.5 38H694H692.5H691H689.5H688H686.5H685V36.5V35H686.5H688H689.5H691H692.5H694H695.5V33.5V32H697H698.5V33.5V35H697V36.5V38H695.5ZM685 35H683.5H682V33.5V32V30.5V29V27.5V26V24.5V23H683.5H685V24.5V26V27.5V29V30.5V32V33.5V35ZM697 26H695.5V24.5V23H694H692.5H691H689.5H688H686.5H685V21.5V20H686.5H688H689.5H691H692.5H694H695.5H697V21.5V23H698.5V24.5V26H697ZM723 38H721.5H720H718.5H717H715.5H714H712.5V36.5V35H714H715.5H717H718.5H720H721.5H723V33.5V32H724.5H726V33.5V35H724.5V36.5V38H723ZM712.5 35H711H709.5V33.5V32V30.5V29V27.5V26V24.5V23H711H712.5V24.5V26V27.5V29V30.5V32V33.5V35ZM724.5 26H723V24.5V23H721.5H720H718.5H717H715.5H714H712.5V21.5V20H714H715.5H717H718.5H720H721.5H723H724.5V21.5V23H726V24.5V26H724.5ZM742 38H740.5H739H737.5H736H734.5H733H731.5V36.5V35H733H734.5H736H737.5H739H740.5H742H743.5V36.5V38H742ZM743.5 35V33.5V32V30.5V29V27.5V26V24.5V23H745H746.5V24.5V26V27.5V29V30.5V32V33.5V35H745H743.5ZM731.5 35H730H728.5V33.5V32V30.5V29V27.5V26V24.5V23H730H731.5V24.5V26V27.5V29V30.5V32V33.5V35ZM743.5 23H742H740.5H739H737.5H736H734.5H733H731.5V21.5V20H733H734.5H736H737.5H739H740.5H742H743.5V21.5V23ZM762.5 38H761V36.5V35V33.5V32V30.5H759.5H758V29V27.5H759.5H761V26V24.5V23V21.5V20H762.5H764V21.5V23V24.5V26V27.5V29V30.5V32V33.5V35V36.5V38H762.5ZM750.5 38H749V36.5V35V33.5V32V30.5V29V27.5V26V24.5V23V21.5V20H750.5H752V21.5H753.5H755V23V24.5H756.5H758V26V27.5H756.5H755V26V24.5H753.5H752V26V27.5V29V30.5V32V33.5V35V36.5V38H750.5ZM774 38H772.5V36.5V35V33.5V32V30.5V29V27.5V26V24.5V23H771H769.5H768H766.5V21.5V20H768H769.5H771H772.5H774H775.5H777H778.5H780H781.5V21.5V23H780H778.5H777H775.5V24.5V26V27.5V29V30.5V32V33.5V35V36.5V38H774ZM797.5 38H796H794.5H793H791.5H790H788.5H787H785.5H784V36.5V35V33.5V32V30.5V29V27.5V26V24.5V23V21.5V20H785.5H787H788.5H790H791.5H793H794.5H796H797.5H799V21.5V23H797.5H796H794.5H793H791.5H790H788.5H787V24.5V26H788.5H790H791.5V27.5V29H790H788.5H787V30.5V32V33.5V35H788.5H790H791.5H793H794.5H796H797.5H799V36.5V38H797.5ZM815 38H813.5V36.5V35V33.5V32V30.5H812H810.5V29V27.5H812H813.5V26V24.5V23V21.5V20H815H816.5V21.5V23V24.5V26V27.5V29V30.5V32V33.5V35V36.5V38H815ZM803 38H801.5V36.5V35V33.5V32V30.5V29V27.5V26V24.5V23V21.5V20H803H804.5V21.5H806H807.5V23V24.5H809H810.5V26V27.5H809H807.5V26V24.5H806H804.5V26V27.5V29V30.5V32V33.5V35V36.5V38H803ZM826.5 38H825V36.5V35V33.5V32V30.5V29V27.5V26V24.5V23H823.5H822H820.5H819V21.5V20H820.5H822H823.5H825H826.5H828H829.5H831H832.5H834V21.5V23H832.5H831H829.5H828V24.5V26V27.5V29V30.5V32V33.5V35V36.5V38H826.5Z" fill="#23D503"/>
<path d="M860.001 29L857.27 20.126C863.802 22.0257 869.963 25.0268 875.486 29C869.963 32.9738 863.803 35.9755 857.271 37.876L860.001 29ZM860.001 29H867.501" stroke="#23D503" stroke-width="1.5" stroke-linecap="round" stroke-linejoin="round"/>
<path d="M909.5 38H908V36.5V35H906.5H905V33.5V32H906.5H908V30.5V29V27.5V26V24.5V23V21.5V20H909.5H911V21.5V23V24.5V26V27.5V29V30.5V32V33.5V35V36.5V38H909.5ZM897.5 38H896V36.5V35V33.5V32V30.5V29V27.5V26V24.5V23V21.5V20H897.5H899V21.5V23V24.5V26V27.5V29V30.5V32H900.5H902V33.5V35H900.5H899V36.5V38H897.5ZM905 32H903.5H902V30.5V29H903.5H905V30.5V32ZM925.5 38H924V36.5V35V33.5V32V30.5V29H922.5H921H919.5H918H916.5V30.5V32V33.5V35V36.5V38H915H913.5V36.5V35V33.5V32V30.5V29V27.5V26V24.5V23H915H916.5V24.5V26H918H919.5H921H922.5H924V24.5V23H925.5H927V24.5V26V27.5V29V30.5V32V33.5V35V36.5V38H925.5ZM924 23H922.5H921H919.5H918H916.5V21.5V20H918H919.5H921H922.5H924V21.5V23ZM946 38H944.5V36.5V35H946H947.5V36.5V38H946ZM931 38H929.5V36.5V35V33.5V32V30.5V29V27.5V26V24.5V23V21.5V20H931H932.5H934H935.5H937H938.5H940H941.5H943V21.5V23H944.5H946V24.5V26H944.5H943V24.5V23H941.5H940H938.5H937H935.5H934H932.5V24.5V26H934H935.5H937H938.5H940H941.5H943V27.5V29H941.5V30.5V32H943H944.5V33.5V35H943H941.5V33.5V32H940H938.5V30.5V29H937H935.5H934H932.5V30.5V32V33.5V35V36.5V38H931ZM963.5 38H962V36.5V35V33.5V32V30.5H960.5H959V29V27.5H960.5H962V26V24.5V23V21.5V20H963.5H965V21.5V23V24.5V26V27.5V29V30.5V32V33.5V35V36.5V38H963.5ZM951.5 38H950V36.5V35V33.5V32V30.5V29V27.5V26V24.5V23V21.5V20H951.5H953V21.5H954.5H956V23V24.5H957.5H959V26V27.5H957.5H956V26V24.5H954.5H953V26V27.5V29V30.5V32V33.5V35V36.5V38H951.5ZM973.5 38H972H970.5H969V36.5V35H970.5V33.5V32V30.5V29V27.5V26V24.5V23H969V21.5V20H970.5H972H973.5H975V21.5V23H973.5V24.5V26V27.5V29V30.5V32V33.5V35H975V36.5V38H973.5ZM991 38H989.5V36.5V35V33.5V32V30.5H988H986.5V29V27.5H988H989.5V26V24.5V23V21.5V20H991H992.5V21.5V23V24.5V26V27.5V29V30.5V32V33.5V35V36.5V38H991ZM979 38H977.5V36.5V35V33.5V32V30.5V29V27.5V26V24.5V23V21.5V20H979H980.5V21.5H982H983.5V23V24.5H985H986.5V26V27.5H985H983.5V26V24.5H982H980.5V26V27.5V29V30.5V32V33.5V35V36.5V38H979ZM1007 38H1005.5H1004H1002.5H1001H999.5H998V36.5V35H999.5H1001H1002.5H1004H1005.5H1007H1008.5V36.5V38H1007ZM1008.5 35V33.5V32V30.5V29H1007H1005.5V27.5V26H1007H1008.5H1010H1011.5V27.5V29V30.5V32V33.5V35H1010H1008.5ZM998 35H996.5H995V33.5V32V30.5V29V27.5V26V24.5V23H996.5H998V24.5V26V27.5V29V30.5V32V33.5V35ZM1010 23H1008.5H1007H1005.5H1004H1002.5H1001H999.5H998V21.5V20H999.5H1001H1002.5H1004H1005.5H1007H1008.5H1010H1011.5V21.5V23H1010ZM1017 38H1015.5V36.5V35H1017H1018.5V36.5V38H1017ZM1017 27.5H1015.5V26V24.5H1017H1018.5V26V27.5H1017ZM1041.5 38H1040H1038.5H1037H1035.5H1034H1032.5V36.5V35H1034H1035.5H1037H1038.5H1040H1041.5H1043V36.5V38H1041.5ZM1043 35V33.5V32V30.5V29H1041.5H1040V27.5V26H1041.5H1043H1044.5H1046V27.5V29V30.5V32V33.5V35H1044.5H1043ZM1032.5 35H1031H1029.5V33.5V32V30.5V29V27.5V26V24.5V23H1031H1032.5V24.5V26V27.5V29V30.5V32V33.5V35ZM1044.5 23H1043H1041.5H1040H1038.5H1037H1035.5H1034H1032.5V21.5V20H1034H1035.5H1037H1038.5H1040H1041.5H1043H1044.5H1046V21.5V23H1044.5ZM1065 38H1063.5V36.5V35H1065H1066.5V36.5V38H1065ZM1050 38H1048.5V36.5V35V33.5V32V30.5V29V27.5V26V24.5V23V21.5V20H1050H1051.5H1053H1054.5H1056H1057.5H1059H1060.5H1062V21.5V23H1063.5H1065V24.5V26H1063.5H1062V24.5V23H1060.5H1059H1057.5H1056H1054.5H1053H1051.5V24.5V26H1053H1054.5H1056H1057.5H1059H1060.5H1062V27.5V29H1060.5V30.5V32H1062H1063.5V33.5V35H1062H1060.5V33.5V32H1059H1057.5V30.5V29H1056H1054.5H1053H1051.5V30.5V32V33.5V35V36.5V38H1050ZM1081 38H1079.5V36.5V35V33.5V32V30.5V29H1078H1076.5H1075H1073.5H1072V30.5V32V33.5V35V36.5V38H1070.5H1069V36.5V35V33.5V32V30.5V29V27.5V26V24.5V23H1070.5H1072V24.5V26H1073.5H1075H1076.5H1078H1079.5V24.5V23H1081H1082.5V24.5V26V27.5V29V30.5V32V33.5V35V36.5V38H1081ZM1079.5 23H1078H1076.5H1075H1073.5H1072V21.5V20H1073.5H1075H1076.5H1078H1079.5V21.5V23ZM1086.5 38H1085V36.5V35V33.5V32V30.5V29V27.5V26V24.5V23V21.5V20H1086.5H1088H1089.5H1091H1092.5H1094H1095.5H1097V21.5V23H1098.5H1100V24.5V26H1098.5H1097V24.5V23H1095.5H1094H1092.5H1091H1089.5H1088V24.5V26H1089.5H1091H1092.5H1094H1095.5H1097V27.5V29H1095.5H1094H1092.5H1091H1089.5H1088V30.5V32V33.5V35V36.5V38H1086.5ZM1116 38H1114.5V36.5V35V33.5V32V30.5H1113H1111.5H1110H1108.5H1107H1105.5V32V33.5V35V36.5V38H1104H1102.5V36.5V35V33.5V32V30.5V29V27.5V26V24.5V23V21.5V20H1104H1105.5V21.5V23V24.5V26V27.5H1107H1108.5H1110H1111.5H1113H1114.5V26V24.5V23V21.5V20H1116H1117.5V21.5V23V24.5V26V27.5V29V30.5V32V33.5V35V36.5V38H1116ZM1126 38H1124.5H1123H1121.5V36.5V35H1123V33.5V32V30.5V29V27.5V26V24.5V23H1121.5V21.5V20H1123H1124.5H1126H1127.5V21.5V23H1126V24.5V26V27.5V29V30.5V32V33.5V35H1127.5V36.5V38H1126ZM1143.5 38H1142H1140.5H1139H1137.5H1136H1134.5H1133V36.5V35H1134.5H1136H1137.5H1139H1140.5H1142H1143.5V33.5V32H1145H1146.5V33.5V35H1145V36.5V38H1143.5ZM1133 35H1131.5H1130V33.5V32V30.5V29V27.5V26V24.5V23H1131.5H1133V24.5V26V27.5V29V30.5V32V33.5V35ZM1145 26H1143.5V24.5V23H1142H1140.5H1139H1137.5H1136H1134.5H1133V21.5V20H1134.5H1136H1137.5H1139H1140.5H1142H1143.5H1145V21.5V23H1146.5V24.5V26H1145ZM1171 38H1169.5H1168H1166.5H1165H1163.5H1162H1160.5V36.5V35H1162H1163.5H1165H1166.5H1168H1169.5H1171V33.5V32H1172.5H1174V33.5V35H1172.5V36.5V38H1171ZM1160.5 35H1159H1157.5V33.5V32V30.5V29V27.5V26V24.5V23H1159H1160.5V24.5V26V27.5V29V30.5V32V33.5V35ZM1172.5 26H1171V24.5V23H1169.5H1168H1166.5H1165H1163.5H1162H1160.5V21.5V20H1162H1163.5H1165H1166.5H1168H1169.5H1171H1172.5V21.5V23H1174V24.5V26H1172.5ZM1190 38H1188.5H1187H1185.5H1184H1182.5H1181H1179.5V36.5V35H1181H1182.5H1184H1185.5H1187H1188.5H1190H1191.5V36.5V38H1190ZM1191.5 35V33.5V32V30.5V29V27.5V26V24.5V23H1193H1194.5V24.5V26V27.5V29V30.5V32V33.5V35H1193H1191.5ZM1179.5 35H1178H1176.5V33.5V32V30.5V29V27.5V26V24.5V23H1178H1179.5V24.5V26V27.5V29V30.5V32V33.5V35ZM1191.5 23H1190H1188.5H1187H1185.5H1184H1182.5H1181H1179.5V21.5V20H1181H1182.5H1184H1185.5H1187H1188.5H1190H1191.5V21.5V23ZM1210.5 38H1209V36.5V35V33.5V32V30.5H1207.5H1206V29V27.5H1207.5H1209V26V24.5V23V21.5V20H1210.5H1212V21.5V23V24.5V26V27.5V29V30.5V32V33.5V35V36.5V38H1210.5ZM1198.5 38H1197V36.5V35V33.5V32V30.5V29V27.5V26V24.5V23V21.5V20H1198.5H1200V21.5H1201.5H1203V23V24.5H1204.5H1206V26V27.5H1204.5H1203V26V24.5H1201.5H1200V26V27.5V29V30.5V32V33.5V35V36.5V38H1198.5ZM1222 38H1220.5V36.5V35V33.5V32V30.5V29V27.5V26V24.5V23H1219H1217.5H1216H1214.5V21.5V20H1216H1217.5H1219H1220.5H1222H1223.5H1225H1226.5H1228H1229.5V21.5V23H1228H1226.5H1225H1223.5V24.5V26V27.5V29V30.5V32V33.5V35V36.5V38H1222ZM1245.5 38H1244H1242.5H1241H1239.5H1238H1236.5H1235H1233.5H1232V36.5V35V33.5V32V30.5V29V27.5V26V24.5V23V21.5V20H1233.5H1235H1236.5H1238H1239.5H1241H1242.5H1244H1245.5H1247V21.5V23H1245.5H1244H1242.5H1241H1239.5H1238H1236.5H1235V24.5V26H1236.5H1238H1239.5V27.5V29H1238H1236.5H1235V30.5V32V33.5V35H1236.5H1238H1239.5H1241H1242.5H1244H1245.5H1247V36.5V38H1245.5ZM1263 38H1261.5V36.5V35V33.5V32V30.5H1260H1258.5V29V27.5H1260H1261.5V26V24.5V23V21.5V20H1263H1264.5V21.5V23V24.5V26V27.5V29V30.5V32V33.5V35V36.5V38H1263ZM1251 38H1249.5V36.5V35V33.5V32V30.5V29V27.5V26V24.5V23V21.5V20H1251H1252.5V21.5H1254H1255.5V23V24.5H1257H1258.5V26V27.5H1257H1255.5V26V24.5H1254H1252.5V26V27.5V29V30.5V32V33.5V35V36.5V38H1251ZM1274.5 38H1273V36.5V35V33.5V32V30.5V29V27.5V26V24.5V23H1271.5H1270H1268.5H1267V21.5V20H1268.5H1270H1271.5H1273H1274.5H1276H1277.5H1279H1280.5H1282V21.5V23H1280.5H1279H1277.5H1276V24.5V26V27.5V29V30.5V32V33.5V35V36.5V38H1274.5Z" fill="#23D503"/>
</g>
<path d="M1280 63V64H1281V63H1280ZM0 63H-1V64H0V63ZM1279 0V63H1281V0H1279ZM1280 62H0V64H1280V62ZM1 63V0H-1V63H1Z" fill="white" mask="url(#path-1-inside-1_1_2682)"/>
<defs>
<clipPath id="clip0_1_2682">
<path d="M0 0H1280V63H0V0Z" fill="white"/>
</clipPath>
</defs>
</svg>
