<svg width="231" height="166" viewBox="0 0 231 166" fill="none" xmlns="http://www.w3.org/2000/svg">
<line x1="21.5" x2="21.5" y2="166" stroke="black"/>
<line x1="0.5" x2="0.5" y2="166" stroke="black"/>
<line x1="43.5" x2="43.5" y2="166" stroke="black"/>
<line x1="63.5" x2="63.5" y2="166" stroke="black"/>
<line x1="84.5" x2="84.5" y2="166" stroke="black"/>
<line x1="105.5" x2="105.5" y2="166" stroke="black"/>
<line x1="126.5" x2="126.5" y2="166" stroke="black"/>
<line x1="147.5" x2="147.5" y2="166" stroke="black"/>
<line x1="168.5" x2="168.5" y2="166" stroke="black"/>
<line x1="189.5" x2="189.5" y2="166" stroke="black"/>
<line x1="209.5" x2="209.5" y2="166" stroke="black"/>
<line x1="230.5" x2="230.5" y2="166" stroke="black"/>
<line y1="0.5" x2="231" y2="0.5" stroke="black"/>
<line y1="21.5" x2="231" y2="21.5" stroke="black"/>
<line y1="42.5" x2="231" y2="42.5" stroke="black"/>
<line y1="63.5" x2="231" y2="63.5" stroke="black"/>
<line y1="84.5" x2="231" y2="84.5" stroke="black"/>
<line y1="104.5" x2="231" y2="104.5" stroke="black"/>
<line y1="125.5" x2="231" y2="125.5" stroke="black"/>
<line y1="146.5" x2="231" y2="146.5" stroke="black"/>
</svg>
