<svg width="672" height="604" viewBox="0 0 672 604" fill="none" xmlns="http://www.w3.org/2000/svg">
<line x1="22.62" x2="22.62" y2="165.009" stroke="white" stroke-width="0.966557"/>
<line y1="18.1905" x2="635.994" y2="18.1905" stroke="white" stroke-width="0.966557"/>
<path opacity="0.4" d="M671.248 34.8081V129.523L632.539 152.745L596.807 174.183L563.715 194.037L532.975 212.473L504.358 229.643L477.648 245.669L452.65 260.666L429.222 274.727L407.201 287.932M671.248 34.8009H39.6507M565.979 603.1H144.902M565.979 603.1H671.248V508.406L632.539 485.228L596.807 463.826L563.715 444.008L532.975 425.601L504.358 408.46L477.648 392.463L452.65 377.495L429.222 363.462L407.201 350.279V272.388L429.222 252.584M565.979 603.1L540.161 568.314L516.322 536.198L494.248 506.456L473.761 478.838L454.683 453.119L436.871 429.112L420.2 406.653L404.58 385.597L389.906 365.815H303.341L281.356 385.597M39.6328 603.1L39.6328 34.8081M671.266 129.516L671.266 508.385M78.3242 568.321H632.557L632.557 69.6373L596.825 101.79M596.825 101.79L596.825 536.205H114.002M596.825 101.79H114.002L78.3063 69.6373L78.3063 568.314L39.6507 603.1H144.92L170.684 568.314L194.47 536.198L216.49 506.456L236.941 478.838L255.984 453.119L273.76 429.112L290.396 406.653L305.997 385.597L320.654 365.815M114.002 536.205L78.3063 568.321M114.002 536.205L114.002 174.19L78.3063 152.753L39.6507 129.531M563.732 131.56L563.732 506.464H147.06M532.993 159.207V478.845H177.745M39.6685 34.8081L78.3242 69.6301H170.702L194.487 101.782L216.508 131.553L236.959 159.2L256.002 184.948L273.778 208.983L290.414 231.471L306.015 252.556L320.672 272.359H389.924L404.598 252.556L420.217 231.471L436.889 208.983L454.701 184.948L473.779 159.2L494.266 131.553L516.34 101.782L540.179 69.6301H632.557L671.266 34.8081M504.358 184.962L504.358 453.133H206.309M113.984 101.79L147.024 131.56M147.024 131.56H563.697L596.79 101.79M147.024 131.56L147.024 506.464L113.984 536.205M144.902 34.8081L170.667 69.6301H540.161L565.979 34.8081M39.6507 508.385L78.3063 485.206L114.002 463.805L147.042 443.987L177.727 425.579L206.309 408.438L232.983 392.441L257.945 377.473L281.338 363.441L303.323 350.257V287.946L281.338 274.741L257.945 260.68L232.983 245.683L206.309 229.657L177.727 212.488L147.042 194.051L114.002 174.197L114.002 101.797M147.042 131.567L177.727 159.215H532.975L563.715 131.567M147.042 506.478L177.727 478.859L177.727 159.222M671.248 224.253L632.539 235.875L596.807 246.604L563.715 256.542L532.975 265.768L504.358 274.36L477.648 282.383L452.65 289.889L429.222 296.927L407.201 303.54M671.248 413.691L632.539 402.113L596.807 391.419L563.715 381.517L532.975 372.321L504.358 363.757L477.648 355.762L452.65 348.286L429.222 341.277L407.201 334.692M232.983 429.127H477.648L477.648 209.012L452.65 231.5M372.575 365.83L379.921 385.612L387.749 406.668L396.093 429.127L405.008 453.133L414.565 478.852L424.818 506.471L435.872 536.212L447.801 568.329L460.727 603.115M337.967 365.844L330.657 385.626L322.865 406.682L314.556 429.141L305.677 453.147L296.155 478.866L285.938 506.485L274.937 536.227L263.062 568.343L250.189 603.129M177.727 159.236L206.309 184.984H504.358L532.975 159.236M177.727 478.874L206.309 453.155L206.309 184.977M671.248 318.976L632.539 318.997L596.807 319.019L563.715 319.033L532.975 319.048L504.358 319.062L477.648 319.077L452.65 319.091L429.222 319.105L407.201 319.12M355.262 365.851V385.633L355.298 406.689L355.298 429.148L355.333 453.155V478.874L355.369 506.492V536.234L355.422 568.35L355.458 603.136M206.309 184.991L232.983 209.026M232.983 209.026H477.648L504.358 184.991M232.983 209.026L232.983 429.163M206.309 453.169L232.983 429.163M232.983 429.163L257.945 406.704L257.945 231.507L232.983 209.019M452.65 231.5H257.945L281.338 252.584L281.338 385.641L257.945 406.696H452.65V231.5ZM429.222 385.612L407.201 365.83H389.888M281.356 252.541H429.24M429.24 252.541L452.668 231.457M429.24 252.541V385.597L452.668 406.653L477.666 429.112L504.376 453.119L532.993 478.838L563.732 506.456L596.825 536.198L632.557 568.314L671.266 603.1M281.356 385.612H429.24M460.727 34.8153L447.801 69.6373L435.872 101.79L424.818 131.56L414.565 159.207L405.008 184.955L396.093 208.99L387.749 231.478L379.921 252.563L372.575 272.366M250.171 34.8153L263.045 69.6373L274.919 101.79L285.921 131.56L296.137 159.207L305.659 184.955L314.538 208.99L322.847 231.478L330.639 252.563L337.949 272.366M303.323 303.518L281.338 296.905L257.945 289.867L232.983 282.362L206.309 274.338L177.727 265.746L147.042 256.521L114.002 246.583L78.3063 235.853L39.6507 224.232M303.323 334.663L281.338 341.248L257.945 348.257L232.983 355.734L206.309 363.728L177.727 372.292L147.042 381.488L114.002 391.39L78.3063 402.084L39.6507 413.662M355.458 34.8009L355.422 69.6229V101.775L355.369 131.546V159.193L355.333 184.941V208.976L355.298 231.464V252.548L355.262 272.352M303.323 319.084L281.338 319.069L257.945 319.055L232.983 319.041L206.309 319.026L177.727 319.012L147.042 318.997L114.002 318.983L78.3063 318.961L39.6507 318.94M303.323 272.345H320.636M303.323 365.808V350.229M303.323 287.917V272.338L281.338 252.534M389.888 272.338H407.201M407.201 350.229V365.808" stroke="url(#paint0_linear_1_2126)" stroke-width="1.46126" stroke-linecap="round" stroke-linejoin="round"/>
<defs>
<linearGradient id="paint0_linear_1_2126" x1="355.424" y1="192.199" x2="355.424" y2="664.443" gradientUnits="userSpaceOnUse">
<stop stop-color="white"/>
<stop offset="1" stop-color="white" stop-opacity="0"/>
</linearGradient>
</defs>
</svg>
