<svg width="17" height="17" viewBox="0 0 17 17" fill="none" xmlns="http://www.w3.org/2000/svg">
<path d="M8.49014 6.49642C8.09582 6.49642 7.71036 6.61335 7.38249 6.83242C7.05462 7.05149 6.79908 7.36287 6.64818 7.72718C6.49728 8.09148 6.4578 8.49236 6.53473 8.8791C6.61166 9.26584 6.80154 9.62109 7.08037 9.89992C7.35919 10.1787 7.71444 10.3686 8.10119 10.4456C8.48793 10.5225 8.8888 10.483 9.25311 10.3321C9.61741 10.1812 9.92879 9.92566 10.1479 9.5978C10.3669 9.26993 10.4839 8.88447 10.4839 8.49014C10.4839 8.22832 10.4323 7.96907 10.3321 7.72718C10.2319 7.48529 10.0851 7.2655 9.89992 7.08037C9.71479 6.89523 9.495 6.74837 9.25311 6.64818C9.01122 6.54799 8.75196 6.49642 8.49014 6.49642ZM16.4731 4.52681C16.4689 3.90599 16.3545 3.29084 16.1354 2.70995C15.9741 2.28488 15.7244 1.89887 15.4029 1.57737C15.0814 1.25588 14.6954 1.00621 14.2703 0.844849C13.6894 0.625752 13.0743 0.511432 12.4535 0.507202C11.4164 0.450928 11.1109 0.450928 8.49014 0.450928C5.86936 0.450928 5.56387 0.450928 4.52681 0.507202C3.90599 0.511432 3.29084 0.625752 2.70995 0.844849C2.28488 1.00621 1.89887 1.25588 1.57737 1.57737C1.25588 1.89887 1.00621 2.28488 0.844849 2.70995C0.625752 3.29084 0.511432 3.90599 0.507202 4.52681C0.450928 5.56387 0.450928 5.86936 0.450928 8.49014C0.450928 11.1109 0.450928 11.4164 0.507202 12.4535C0.515856 13.0765 0.630021 13.6935 0.844849 14.2784C1.0055 14.7015 1.25495 15.0853 1.57642 15.4039C1.89653 15.7273 2.28338 15.977 2.70995 16.1354C3.29084 16.3545 3.90599 16.4689 4.52681 16.4731C5.56387 16.5294 5.86936 16.5294 8.49014 16.5294C11.1109 16.5294 11.4164 16.5294 12.4535 16.4731C13.0743 16.4689 13.6894 16.3545 14.2703 16.1354C14.6969 15.977 15.0838 15.7273 15.4039 15.4039C15.7253 15.0853 15.9748 14.7015 16.1354 14.2784C16.3543 13.6946 16.4686 13.0769 16.4731 12.4535C16.5294 11.4164 16.5294 11.1109 16.5294 8.49014C16.5294 5.86936 16.5294 5.56387 16.4731 4.52681ZM14.4311 10.9582C14.4053 11.4543 14.2994 11.943 14.1176 12.4052C13.9615 12.7909 13.7295 13.1412 13.4353 13.4353C13.1412 13.7295 12.7909 13.9615 12.4052 14.1176C11.9386 14.2893 11.4472 14.3843 10.9501 14.399C10.315 14.399 10.1462 14.399 8.49014 14.399C6.83406 14.399 6.66524 14.399 6.03014 14.399C5.5331 14.3843 5.04171 14.2893 4.57505 14.1176C4.17638 13.9694 3.81637 13.7331 3.52191 13.4262C3.23062 13.1378 3.00567 12.7894 2.86269 12.4052C2.6903 11.9391 2.59789 11.4471 2.58936 10.9501C2.58936 10.315 2.58936 10.1462 2.58936 8.49014C2.58936 6.83406 2.58936 6.66524 2.58936 6.03014C2.59789 5.53318 2.6903 5.04123 2.86269 4.57505C3.01084 4.17638 3.24719 3.81637 3.55407 3.52191C3.84374 3.23219 4.19179 3.00747 4.57505 2.86269C5.04171 2.69098 5.5331 2.59596 6.03014 2.58132C6.66524 2.58132 6.83406 2.58132 8.49014 2.58132C10.1462 2.58132 10.315 2.58132 10.9501 2.58132C11.4472 2.59596 11.9386 2.69098 12.4052 2.86269C12.8039 3.01084 13.1639 3.24719 13.4584 3.55407C13.7497 3.84247 13.9746 4.19088 14.1176 4.57505C14.2893 5.04171 14.3843 5.5331 14.399 6.03014C14.399 6.66524 14.399 6.83406 14.399 8.49014C14.399 10.1462 14.4552 10.315 14.4311 10.9501V10.9582ZM13.1448 4.97701C13.0491 4.71733 12.8982 4.4815 12.7025 4.28581C12.5068 4.09011 12.271 3.93919 12.0113 3.84348C11.6548 3.71988 11.2792 3.66001 10.9019 3.66661C10.2748 3.66661 10.098 3.66661 8.49014 3.66661C6.8823 3.66661 6.70544 3.66661 6.07838 3.66661C5.69914 3.67032 5.32355 3.74108 4.96897 3.87563C4.71326 3.967 4.47994 4.11176 4.2845 4.30027C4.08905 4.48878 3.93598 4.71673 3.83544 4.96897C3.71869 5.32701 3.66165 5.70182 3.66661 6.07838C3.66661 6.70544 3.66661 6.8823 3.66661 8.49014C3.66661 10.098 3.66661 10.2748 3.66661 10.9019C3.67458 11.2807 3.74521 11.6556 3.87563 12.0113C3.97135 12.271 4.12226 12.5068 4.31796 12.7025C4.51366 12.8982 4.74948 13.0491 5.00916 13.1448C5.35217 13.271 5.71312 13.3416 6.07838 13.3539C6.70544 13.3539 6.8823 13.3539 8.49014 13.3539C10.098 13.3539 10.2748 13.3539 10.9019 13.3539C11.2811 13.3502 11.6567 13.2794 12.0113 13.1448C12.271 13.0491 12.5068 12.8982 12.7025 12.7025C12.8982 12.5068 13.0491 12.271 13.1448 12.0113C13.2794 11.6567 13.3502 11.2811 13.3539 10.9019C13.3539 10.2748 13.3539 10.098 13.3539 8.49014C13.3539 6.8823 13.3539 6.70544 13.3539 6.07838C13.3541 5.69877 13.2832 5.32247 13.1448 4.96897V4.97701ZM8.49014 11.5611C8.08723 11.5611 7.68828 11.4816 7.31615 11.3272C6.94401 11.1728 6.606 10.9464 6.32147 10.6612C6.03694 10.3759 5.8115 10.0373 5.65804 9.66475C5.50459 9.29221 5.42614 8.89305 5.4272 8.49014C5.4272 7.88242 5.60752 7.28836 5.94532 6.78317C6.28312 6.27797 6.76322 5.88436 7.32483 5.65217C7.88645 5.41997 8.50433 5.35963 9.10026 5.47877C9.69619 5.59792 10.2434 5.8912 10.6725 6.32149C11.1017 6.75178 11.3935 7.29973 11.5111 7.89597C11.6287 8.49221 11.5668 9.10993 11.3331 9.67094C11.0994 10.2319 10.7046 10.711 10.1985 11.0475C9.6924 11.384 9.09787 11.5627 8.49014 11.5611ZM11.7058 6.0221C11.5281 6.00329 11.3637 5.91938 11.2441 5.78653C11.1246 5.65368 11.0585 5.4813 11.0585 5.30259C11.0585 5.12389 11.1246 4.95151 11.2441 4.81866C11.3637 4.68581 11.5281 4.6019 11.7058 4.58308C11.8835 4.6019 12.048 4.68581 12.1675 4.81866C12.2871 4.95151 12.3532 5.12389 12.3532 5.30259C12.3532 5.4813 12.2871 5.65368 12.1675 5.78653C12.048 5.91938 11.8835 6.00329 11.7058 6.0221Z" fill="#88939E"/>
</svg>
