<svg width="17" height="17" viewBox="0 0 17 17" fill="none" xmlns="http://www.w3.org/2000/svg">
<path d="M15.0761 0.45104H1.45764C1.30456 0.448914 1.15256 0.476965 1.01031 0.53359C0.868072 0.590215 0.738378 0.674306 0.628638 0.78106C0.518898 0.887813 0.431262 1.01514 0.370735 1.15577C0.310208 1.29639 0.277976 1.44756 0.275879 1.60065V15.3799C0.277976 15.5329 0.310208 15.6841 0.370735 15.8247C0.431262 15.9654 0.518898 16.0927 0.628638 16.1995C0.738378 16.3062 0.868072 16.3903 1.01031 16.4469C1.15256 16.5035 1.30456 16.5316 1.45764 16.5295H15.0761C15.2292 16.5316 15.3812 16.5035 15.5234 16.4469C15.6656 16.3903 15.7953 16.3062 15.9051 16.1995C16.0148 16.0927 16.1025 15.9654 16.163 15.8247C16.2235 15.6841 16.2557 15.5329 16.2578 15.3799V1.60065C16.2557 1.44756 16.2235 1.29639 16.163 1.15577C16.1025 1.01514 16.0148 0.887813 15.9051 0.78106C15.7953 0.674306 15.6656 0.590215 15.5234 0.53359C15.3812 0.476965 15.2292 0.448914 15.0761 0.45104ZM5.12353 13.9087H2.71176V6.67339H5.12353V13.9087ZM3.91764 5.66045C3.58503 5.66045 3.26604 5.52832 3.03085 5.29313C2.79566 5.05794 2.66353 4.73895 2.66353 4.40633C2.66353 4.07372 2.79566 3.75473 3.03085 3.51954C3.26604 3.28435 3.58503 3.15222 3.91764 3.15222C4.09426 3.13219 4.27312 3.14969 4.4425 3.20357C4.61189 3.25746 4.76798 3.34652 4.90056 3.46491C5.03314 3.58331 5.13922 3.72837 5.21185 3.8906C5.28448 4.05284 5.32203 4.22858 5.32203 4.40633C5.32203 4.58408 5.28448 4.75983 5.21185 4.92206C5.13922 5.0843 5.03314 5.22936 4.90056 5.34776C4.76798 5.46615 4.61189 5.55521 4.4425 5.60909C4.27312 5.66298 4.09426 5.68048 3.91764 5.66045ZM13.822 13.9087H11.4102V10.0257C11.4102 9.053 11.0645 8.4179 10.1882 8.4179C9.91704 8.41989 9.65297 8.50495 9.43161 8.66163C9.21025 8.81831 9.04223 9.03907 8.95019 9.29418C8.88728 9.48313 8.86002 9.68213 8.8698 9.88104V13.9006H6.45804C6.45804 13.9006 6.45804 7.32457 6.45804 6.66535H8.8698V7.68633C9.08889 7.30616 9.40755 6.99297 9.79145 6.78048C10.1753 6.56799 10.6099 6.46425 11.0484 6.48045C12.6563 6.48045 13.822 7.51751 13.822 9.74437V13.9087Z" fill="#88939E"/>
</svg>
