<svg width="79" height="73" viewBox="0 0 79 73" fill="none" xmlns="http://www.w3.org/2000/svg">
<g filter="url(#filter0_d_373_194)">
<rect width="37.5" height="23.625" transform="translate(35.4375 42)" fill="#FFC700"/>
<path d="M41.3785 48.8125H43.1781L45.921 53.5857H46.0338L48.7767 48.8125H50.5763L46.7669 55.1904V59.3125H45.1878V55.1904L41.3785 48.8125ZM54.1134 59.4714C53.3751 59.4714 52.7308 59.3022 52.1805 58.9639C51.6302 58.6255 51.203 58.1521 50.8988 57.5437C50.5946 56.9353 50.4425 56.2244 50.4425 55.4109C50.4425 54.594 50.5946 53.8796 50.8988 53.2678C51.203 52.656 51.6302 52.1809 52.1805 51.8425C52.7308 51.5042 53.3751 51.335 54.1134 51.335C54.8517 51.335 55.496 51.5042 56.0463 51.8425C56.5965 52.1809 57.0238 52.656 57.328 53.2678C57.6322 53.8796 57.7843 54.594 57.7843 55.4109C57.7843 56.2244 57.6322 56.9353 57.328 57.5437C57.0238 58.1521 56.5965 58.6255 56.0463 58.9639C55.496 59.3022 54.8517 59.4714 54.1134 59.4714ZM54.1185 58.1846C54.597 58.1846 54.9935 58.0581 55.308 57.8052C55.6224 57.5522 55.8548 57.2156 56.0052 56.7952C56.159 56.3748 56.2359 55.9116 56.2359 55.4058C56.2359 54.9033 56.159 54.4419 56.0052 54.0215C55.8548 53.5977 55.6224 53.2576 55.308 53.0012C54.9935 52.7449 54.597 52.6167 54.1185 52.6167C53.6366 52.6167 53.2367 52.7449 52.9188 53.0012C52.6044 53.2576 52.3702 53.5977 52.2164 54.0215C52.066 54.4419 51.9908 54.9033 51.9908 55.4058C51.9908 55.9116 52.066 56.3748 52.2164 56.7952C52.3702 57.2156 52.6044 57.5522 52.9188 57.8052C53.2367 58.0581 53.6366 58.1846 54.1185 58.1846ZM64.6283 56.0466V51.4375H66.1664V59.3125H64.6591V57.9487H64.577C64.3959 58.3691 64.1054 58.7195 63.7055 58.9998C63.309 59.2766 62.8151 59.415 62.2238 59.415C61.7179 59.415 61.2702 59.304 60.8805 59.0818C60.4943 58.8562 60.1901 58.5229 59.9679 58.082C59.7492 57.6411 59.6398 57.0959 59.6398 56.4465V51.4375H61.1727V56.262C61.1727 56.7986 61.3214 57.2258 61.6188 57.5437C61.9162 57.8616 62.3024 58.0205 62.7775 58.0205C63.0646 58.0205 63.35 57.9487 63.6337 57.8052C63.9208 57.6616 64.1583 57.4446 64.3463 57.1541C64.5377 56.8635 64.6317 56.4944 64.6283 56.0466Z" fill="black" fill-opacity="0.8"/>
</g>
<g filter="url(#filter1_d_373_194)">
<path d="M24.2812 38.0625L21 21L35.4375 29.5312L28.2188 31.5L24.2812 38.0625Z" fill="#FFC700"/>
<path d="M21.3339 20.435L20.0807 19.6945L20.3556 21.1239L23.6368 38.1864L23.9609 39.8719L24.844 38.4001L28.6458 32.0637L35.6102 30.1644L37.1077 29.7559L35.7714 28.9663L21.3339 20.435Z" stroke="white" stroke-width="1.3125" stroke-linecap="square"/>
</g>
<defs>
<filter id="filter0_d_373_194" x="30.1875" y="38.0625" width="48" height="34.125" filterUnits="userSpaceOnUse" color-interpolation-filters="sRGB">
<feFlood flood-opacity="0" result="BackgroundImageFix"/>
<feColorMatrix in="SourceAlpha" type="matrix" values="0 0 0 0 0 0 0 0 0 0 0 0 0 0 0 0 0 0 127 0" result="hardAlpha"/>
<feOffset dy="1.3125"/>
<feGaussianBlur stdDeviation="2.625"/>
<feColorMatrix type="matrix" values="0 0 0 0 0 0 0 0 0 0 0 0 0 0 0 0 0 0 0.16 0"/>
<feBlend mode="normal" in2="BackgroundImageFix" result="effect1_dropShadow_373_194"/>
<feBlend mode="normal" in="SourceGraphic" in2="effect1_dropShadow_373_194" result="shape"/>
</filter>
<filter id="filter1_d_373_194" x="15.2239" y="15.764" width="27.4916" height="31.1672" filterUnits="userSpaceOnUse" color-interpolation-filters="sRGB">
<feFlood flood-opacity="0" result="BackgroundImageFix"/>
<feColorMatrix in="SourceAlpha" type="matrix" values="0 0 0 0 0 0 0 0 0 0 0 0 0 0 0 0 0 0 127 0" result="hardAlpha"/>
<feOffset dy="1.3125"/>
<feGaussianBlur stdDeviation="1.96875"/>
<feColorMatrix type="matrix" values="0 0 0 0 0 0 0 0 0 0 0 0 0 0 0 0 0 0 0.35 0"/>
<feBlend mode="normal" in2="BackgroundImageFix" result="effect1_dropShadow_373_194"/>
<feBlend mode="normal" in="SourceGraphic" in2="effect1_dropShadow_373_194" result="shape"/>
</filter>
</defs>
</svg>
