<svg width="14" height="15" viewBox="0 0 14 15" fill="none" xmlns="http://www.w3.org/2000/svg">
<path d="M4.2688 4.55713V3.60194C4.2688 2.82311 4.84864 2.1623 5.62473 2.0978C5.88068 2.07721 6.138 2.05868 6.39533 2.0429M9.41528 11.7622H10.9592C11.3687 11.7622 11.7614 11.5995 12.051 11.31C12.3405 11.0205 12.5032 10.6277 12.5032 10.2183V3.60194C12.5032 2.82311 11.9233 2.1623 11.1472 2.0978C10.8906 2.07651 10.6337 2.05821 10.3766 2.0429M10.3766 2.0429C10.2792 1.72773 10.0827 1.45204 9.81722 1.2562C9.55174 1.06036 9.23053 0.954667 8.90063 0.95459H7.87134C7.54144 0.954667 7.22024 1.06036 6.95476 1.2562C6.68928 1.45204 6.49347 1.72773 6.39601 2.0429C6.35141 2.187 6.32739 2.34002 6.32739 2.49854V3.01318H10.4446V2.49854C10.4446 2.34002 10.4212 2.187 10.3766 2.0429ZM9.41528 12.2769V10.9902C9.41528 10.376 9.17129 9.78695 8.73697 9.35263C8.30265 8.91831 7.71359 8.67432 7.09937 8.67432H6.07007C5.86533 8.67432 5.66897 8.59298 5.5242 8.44821C5.37943 8.30344 5.2981 8.10708 5.2981 7.90234V6.87305C5.2981 6.25883 5.0541 5.66976 4.61978 5.23545C4.18546 4.80113 3.5964 4.55713 2.98218 4.55713H2.21021M3.2395 4.55713H1.95288C1.52675 4.55713 1.18091 4.90297 1.18091 5.3291V13.5635C1.18091 13.9896 1.52675 14.3354 1.95288 14.3354H8.64331C9.06944 14.3354 9.41528 13.9896 9.41528 13.5635V10.7329C9.41528 9.09499 8.76462 7.52416 7.60644 6.36597C6.44826 5.20779 4.87742 4.55713 3.2395 4.55713Z" stroke="#88939E" stroke-width="1.0293" stroke-linecap="round" stroke-linejoin="round"/>
</svg>
