<svg width="280" height="280" viewBox="0 0 280 280" fill="none" xmlns="http://www.w3.org/2000/svg">
<path d="M138.333 151.476L120.019 170.567C119.718 170.881 119.716 171.377 120.014 171.693L147.347 200.661C147.501 200.824 147.716 200.917 147.941 200.917H185.023C185.743 200.917 186.111 200.054 185.613 199.535L139.511 151.476C139.19 151.141 138.654 151.141 138.333 151.476Z" fill="white"/>
<path d="M201.042 83.2432H164.439C164.219 83.2432 164.008 83.332 163.855 83.4896L118.869 129.611C118.72 129.764 118.637 129.969 118.637 130.182V169.029C118.637 169.765 119.533 170.126 120.043 169.595L201.631 84.6256C202.13 84.1065 201.762 83.2432 201.042 83.2432Z" fill="white"/>
<path d="M116.977 84.1226H91.6275C91.1765 84.1226 90.8108 84.4882 90.8108 84.9393V155.868C90.8108 156.603 91.7042 156.964 92.2147 156.436L117.564 130.221C117.711 130.068 117.794 129.865 117.794 129.653V84.9393C117.794 84.4882 117.428 84.1226 116.977 84.1226Z" fill="#88939E"/>
<circle cx="140" cy="140" r="138.293" stroke="#86939F" stroke-width="3.41463"/>
</svg>
