<svg width="1063" height="1076" viewBox="0 0 1063 1076" fill="none" xmlns="http://www.w3.org/2000/svg">
<mask id="path-1-inside-1_1_2408" fill="white">
<path d="M0 6C0 2.68629 2.68629 0 6 0H1057C1060.31 0 1063 2.68629 1063 6V1239C1063 1242.31 1060.31 1245 1057 1245H5.99998C2.68627 1245 0 1242.31 0 1239V6Z"/>
</mask>
<path d="M-1 6C-1 2.13401 2.13401 -1 6 -1H1057C1060.87 -1 1064 2.13401 1064 6H1062C1062 3.23858 1059.76 1 1057 1H6C3.23858 1 1 3.23858 1 6H-1ZM1063 1245H0H1063ZM6 1245C2.13401 1245 -1 1241.87 -1 1238V6C-1 2.13401 2.13401 -1 6 -1V1C3.23858 1 1 3.23858 1 6V1239C1 1242.31 3.23858 1245 6 1245ZM1057 -1C1060.87 -1 1064 2.13401 1064 6V1238C1064 1241.87 1060.87 1245 1057 1245C1059.76 1245 1062 1242.31 1062 1239V6C1062 3.23858 1059.76 1 1057 1V-1Z" fill="url(#paint0_linear_1_2408)" mask="url(#path-1-inside-1_1_2408)"/>
<defs>
<linearGradient id="paint0_linear_1_2408" x1="531.5" y1="-6.05648e-08" x2="532.077" y2="1071.81" gradientUnits="userSpaceOnUse">
<stop stop-color="#AAAAAA"/>
<stop offset="1" stop-color="#373737" stop-opacity="0"/>
</linearGradient>
</defs>
</svg>
