<svg width="164" height="119" viewBox="0 0 164 119" fill="none" xmlns="http://www.w3.org/2000/svg">
<line x1="15.2172" y1="0.558472" x2="15.2172" y2="118.052" stroke="black" stroke-width="0.707792"/>
<line x1="0.353896" y1="0.558472" x2="0.353896" y2="118.052" stroke="black" stroke-width="0.707792"/>
<line x1="30.789" y1="0.558472" x2="30.789" y2="118.052" stroke="black" stroke-width="0.707792"/>
<line x1="44.9447" y1="0.558472" x2="44.9447" y2="118.052" stroke="black" stroke-width="0.707792"/>
<line x1="59.8085" y1="0.558472" x2="59.8085" y2="118.052" stroke="black" stroke-width="0.707792"/>
<line x1="74.6718" y1="0.558472" x2="74.6718" y2="118.052" stroke="black" stroke-width="0.707792"/>
<line x1="89.5355" y1="0.558472" x2="89.5355" y2="118.052" stroke="black" stroke-width="0.707792"/>
<line x1="104.399" y1="0.558472" x2="104.399" y2="118.052" stroke="black" stroke-width="0.707792"/>
<line x1="119.263" y1="0.558472" x2="119.263" y2="118.052" stroke="black" stroke-width="0.707792"/>
<line x1="134.127" y1="0.558472" x2="134.127" y2="118.052" stroke="black" stroke-width="0.707792"/>
<line x1="148.282" y1="0.558472" x2="148.282" y2="118.052" stroke="black" stroke-width="0.707792"/>
<line x1="163.146" y1="0.558472" x2="163.146" y2="118.052" stroke="black" stroke-width="0.707792"/>
<line y1="0.912339" x2="163.5" y2="0.912339" stroke="black" stroke-width="0.707792"/>
<line y1="15.776" x2="163.5" y2="15.776" stroke="black" stroke-width="0.707792"/>
<line y1="30.6396" x2="163.5" y2="30.6396" stroke="black" stroke-width="0.707792"/>
<line y1="45.5033" x2="163.5" y2="45.5033" stroke="black" stroke-width="0.707792"/>
<line y1="60.3669" x2="163.5" y2="60.3669" stroke="black" stroke-width="0.707792"/>
<line y1="74.5227" x2="163.5" y2="74.5227" stroke="black" stroke-width="0.707792"/>
<line y1="89.3863" x2="163.5" y2="89.3863" stroke="black" stroke-width="0.707792"/>
<line y1="104.25" x2="163.5" y2="104.25" stroke="black" stroke-width="0.707792"/>
</svg>
