<svg width="340" height="153" viewBox="0 0 340 153" fill="none" xmlns="http://www.w3.org/2000/svg">
<path d="M310.854 6.29087L21.7572 39.5159C12.1893 40.6155 5.32441 49.2632 6.42401 58.831L14.7614 131.376C15.861 140.944 24.5087 147.809 34.0766 146.709L267.411 119.893C276.979 118.793 283.844 110.145 282.745 100.578L281.189 87.043C280.777 83.4551 283.351 80.2122 286.939 79.7998L318.88 76.1289C328.448 75.0293 335.313 66.3816 334.214 56.8137L330.169 21.624C329.07 12.0562 320.422 5.19126 310.854 6.29087Z" fill="#E5D55F" stroke="white" stroke-width="10.8989" stroke-miterlimit="1.12759" stroke-linejoin="round"/>
<path d="M34.7279 83.9434L32.4654 64.2569L40.9629 63.2803C42.424 63.1124 43.733 63.2314 44.89 63.6373C46.047 64.0433 46.9873 64.7111 47.711 65.6409C48.4347 66.5706 48.8768 67.734 49.0374 69.131C49.1994 70.5409 49.022 71.7657 48.5052 72.8056C47.9948 73.8447 47.204 74.6758 46.1328 75.2988C45.0681 75.9212 43.7859 76.3185 42.2864 76.4908L37.2109 77.0741L36.7337 72.9215L40.7325 72.4619C41.3605 72.3898 41.8868 72.2514 42.3113 72.0467C42.7415 71.835 43.0552 71.5424 43.2526 71.1691C43.4563 70.7951 43.5261 70.3293 43.4621 69.7718C43.3973 69.2078 43.2228 68.7636 42.9388 68.4392C42.6605 68.1075 42.2874 67.8842 41.8197 67.7691C41.3576 67.6469 40.8126 67.6219 40.1845 67.6941L38.3005 67.9106L40.0725 83.3292L34.7279 83.9434ZM45.2245 73.5819L51.1846 82.0521L45.3786 82.7194L39.5339 74.2359L45.2245 73.5819ZM52.8091 81.8654L50.5466 62.1789L64.7348 60.5483L65.2297 64.8547L56.3862 65.871L56.775 69.2547L64.888 68.3223L65.383 72.6287L57.2699 73.5611L57.6588 76.9447L66.4639 75.9328L66.9589 80.2392L52.8091 81.8654ZM74.7619 79.3424L68.9943 80.0053L73.2299 59.5719L80.5355 58.7323L89.2961 77.6721L83.5285 78.3349L77.5827 64.5648L77.4289 64.5825L74.7619 79.3424ZM72.7926 71.6992L83.6356 70.4531L84.0952 74.4519L73.2522 75.6981L72.7926 71.6992ZM107.232 63.1441L101.811 63.7672C101.721 63.323 101.571 62.9279 101.363 62.5818C101.161 62.2349 100.9 61.9467 100.582 61.7171C100.269 61.4803 99.9023 61.3147 99.4823 61.2201C99.0617 61.1191 98.595 61.098 98.0823 61.157C97.1851 61.2601 96.4508 61.5652 95.8793 62.0724C95.3141 62.5789 94.9181 63.2575 94.6913 64.1082C94.4708 64.9581 94.4261 65.9535 94.5572 67.0941C94.6956 68.2989 94.9719 69.2898 95.3858 70.0669C95.8054 70.8368 96.3464 71.3914 97.0088 71.7309C97.6704 72.0639 98.4337 72.1807 99.2989 72.0813C99.7923 72.0246 100.227 71.9129 100.604 71.7462C100.981 71.5731 101.299 71.3514 101.56 71.0811C101.821 70.8109 102.023 70.4988 102.164 70.145C102.311 69.784 102.392 69.3883 102.407 68.958L107.833 68.3734C107.865 69.2138 107.728 70.0898 107.424 71.0014C107.119 71.9065 106.637 72.767 105.977 73.583C105.324 74.3919 104.478 75.08 103.439 75.6474C102.4 76.2147 101.16 76.5813 99.7182 76.747C97.911 76.9547 96.2452 76.7533 94.7206 76.1429C93.2024 75.5317 91.9402 74.521 90.934 73.1108C89.9343 71.6998 89.3092 69.9049 89.0588 67.7261C88.8069 65.5344 89.0178 63.6402 89.6913 62.0434C90.3641 60.4402 91.3741 59.1716 92.7212 58.2376C94.0676 57.2973 95.6251 56.7254 97.3938 56.5221C98.6371 56.3793 99.8005 56.4176 100.884 56.6372C101.968 56.8568 102.941 57.2481 103.804 57.8112C104.667 58.3679 105.393 59.0928 105.983 59.986C106.572 60.8792 106.989 61.9319 107.232 63.1441ZM108.765 59.8513L108.27 55.5449L125.381 53.5784L125.875 57.8849L119.954 58.5654L121.722 73.9455L116.454 74.5509L114.686 59.1708L108.765 59.8513ZM131.725 73.1075C130.982 73.1929 130.314 73.0067 129.723 72.5487C129.137 72.0836 128.804 71.4758 128.724 70.7253C128.634 69.9955 128.822 69.3408 129.288 68.7614C129.76 68.1812 130.368 67.8483 131.111 67.7629C131.816 67.6819 132.467 67.87 133.065 68.3272C133.67 68.7837 134.017 69.3768 134.107 70.1066C134.159 70.6072 134.079 71.0773 133.87 71.5169C133.667 71.9494 133.377 72.3106 133.001 72.6005C132.625 72.884 132.2 73.053 131.725 73.1075ZM143.039 51.549L148.307 50.9436L149.858 64.4397C149.998 65.7221 149.804 66.8872 149.276 67.9349C148.752 68.9755 147.961 69.8325 146.902 70.5061C145.849 71.1726 144.595 71.5894 143.141 71.7566C141.878 71.9017 140.7 71.8164 139.605 71.5007C138.51 71.1785 137.597 70.5822 136.867 69.7116C136.136 68.8346 135.687 67.6395 135.52 66.1264L140.865 65.5122C140.941 66.0034 141.072 66.4104 141.258 66.7331C141.451 67.055 141.692 67.2871 141.981 67.4292C142.276 67.5641 142.618 67.6091 143.009 67.5642C143.407 67.5185 143.73 67.3937 143.979 67.1898C144.235 66.9851 144.414 66.7048 144.516 66.349C144.617 65.9867 144.642 65.5521 144.59 65.0451L143.039 51.549ZM162.159 55.5849C162.034 54.95 161.736 54.4778 161.265 54.1682C160.801 53.858 160.137 53.7525 159.271 53.852C158.72 53.9153 158.276 54.0345 157.939 54.2096C157.608 54.3775 157.372 54.5832 157.231 54.8267C157.09 55.0701 157.033 55.3364 157.06 55.6255C157.074 55.8641 157.141 56.074 157.259 56.2552C157.383 56.4293 157.562 56.5807 157.798 56.7094C158.033 56.8318 158.327 56.9343 158.681 57.017C159.034 57.0998 159.451 57.1623 159.929 57.2047L161.584 57.3651C162.7 57.4706 163.668 57.6679 164.486 57.9568C165.305 58.2458 165.991 58.6183 166.543 59.0742C167.095 59.5238 167.522 60.0525 167.826 60.6605C168.136 61.2676 168.337 61.9457 168.43 62.6948C168.572 63.99 168.375 65.123 167.837 66.0939C167.299 67.0647 166.461 67.8525 165.323 68.4573C164.191 69.0614 162.792 69.4591 161.126 69.6506C159.415 69.8473 157.893 69.7657 156.559 69.406C155.232 69.0456 154.156 68.3804 153.33 67.4105C152.51 66.4333 152.002 65.1217 151.807 63.4755L156.882 62.8922C156.983 63.4909 157.192 63.9798 157.508 64.359C157.825 64.7382 158.239 65.0056 158.75 65.1611C159.268 65.3159 159.866 65.3542 160.545 65.2761C161.116 65.2106 161.585 65.0852 161.953 64.9C162.322 64.7149 162.591 64.4859 162.761 64.2132C162.931 63.9404 163 63.6434 162.97 63.3223C162.929 63.0218 162.8 62.7705 162.581 62.5683C162.369 62.359 162.038 62.1892 161.588 62.0591C161.137 61.9226 160.537 61.8163 159.788 61.74L157.779 61.5424C155.992 61.3647 154.545 60.8914 153.437 60.1227C152.335 59.3468 151.699 58.1895 151.529 56.6508C151.379 55.4019 151.586 54.2709 152.152 53.258C152.723 52.2379 153.577 51.3962 154.715 50.733C155.86 50.0691 157.21 49.6476 158.768 49.4686C160.357 49.286 161.762 49.394 162.983 49.7926C164.204 50.1911 165.184 50.8382 165.924 51.7337C166.669 52.622 167.118 53.7099 167.273 54.9972L162.159 55.5849Z" fill="#101010"/>
<rect x="182.91" y="38.5481" width="126.427" height="34.8764" rx="17.4382" transform="rotate(-6.55606 182.91 38.5481)" fill="#101010"/>
<path d="M203.21 61.5605L196.11 44.8235L201.355 44.2208L204.948 54.607L205.084 54.5914L206.667 43.6103L210.795 43.1358L214.832 53.5053L214.968 53.4898L216.107 42.5253L221.352 41.9226L218.234 59.8339L213.734 60.3511L209.678 51.0123L209.542 51.0278L207.711 61.0433L203.21 61.5605ZM229.264 58.5662L222.164 41.8292L227.409 41.2265L231.002 51.6127L231.138 51.5972L232.721 40.616L236.849 40.1415L240.886 50.511L241.022 50.4955L242.161 39.531L247.406 38.9283L244.288 56.8396L239.787 57.3568L235.732 48.018L235.596 48.0335L233.765 58.049L229.264 58.5662ZM255.318 55.5719L248.218 38.8349L253.463 38.2322L257.056 48.6184L257.191 48.6029L258.775 37.6217L262.903 37.1473L266.94 47.5168L267.076 47.5012L268.215 36.5367L273.46 35.934L270.342 53.8453L265.841 54.3625L261.785 45.0237L261.65 45.0392L259.818 55.0547L255.318 55.5719ZM277.307 53.3191C276.653 53.3943 276.065 53.2304 275.545 52.8274C275.029 52.4181 274.736 51.8832 274.666 51.2228C274.587 50.5805 274.752 50.0044 275.162 49.4945C275.577 48.9839 276.112 48.691 276.766 48.6159C277.387 48.5446 277.96 48.7101 278.486 49.1124C279.018 49.5141 279.324 50.0361 279.403 50.6783C279.448 51.1189 279.379 51.5325 279.195 51.9194C279.015 52.2999 278.761 52.6178 278.43 52.8729C278.099 53.1224 277.724 53.2711 277.307 53.3191Z" fill="#E5D55F"/>
<g clip-path="url(#clip0_1_2653)">
<path d="M298.204 49.8782C298.267 49.8532 298.324 49.8123 298.381 49.7715C298.581 49.5826 298.595 49.2475 298.391 49.0537L295.522 46.1036L298.753 44.8272C299.07 44.7021 299.296 44.3931 299.288 44.0484C299.296 43.6974 299.085 43.3961 298.754 43.2524L289.344 39.3161C289.034 39.1819 288.661 39.2562 288.426 39.4956C288.175 39.7412 288.113 40.0951 288.239 40.4118L292.005 49.9466C292.137 50.2792 292.439 50.4892 292.806 50.4908C292.914 50.4849 293.021 50.479 293.116 50.4415C293.338 50.3539 293.506 50.1775 293.586 49.9628L294.823 46.8374L297.67 49.7779C297.811 49.905 298.029 49.9471 298.204 49.8782ZM285.674 37.3966C285.828 37.5554 286.04 37.5816 286.23 37.5065C286.294 37.4815 286.351 37.4407 286.408 37.3998C286.608 37.2109 286.622 36.8758 286.417 36.682L284.613 34.8496C284.424 34.6496 284.089 34.6355 283.895 34.8402C283.695 35.0291 283.681 35.3642 283.886 35.558L285.674 37.3966ZM282.496 40.4284L285.042 40.2464C285.096 40.2434 285.143 40.2247 285.191 40.2059C285.397 40.1245 285.537 39.9228 285.519 39.6918C285.498 39.4071 285.249 39.1942 284.964 39.2151L282.418 39.3971C282.133 39.418 281.92 39.6669 281.941 39.9516C281.962 40.2363 282.211 40.4493 282.496 40.4284ZM288.71 36.6001C288.786 36.6067 288.872 36.5913 288.951 36.56C289.125 36.4912 289.246 36.3336 289.278 36.1377L289.555 33.5932C289.588 33.3055 289.38 33.058 289.099 33.041C288.811 33.0081 288.563 33.2158 288.546 33.4971L288.27 36.0416C288.237 36.3293 288.429 36.5831 288.71 36.6001Z" fill="#E5D55F"/>
</g>
<circle cx="50.415" cy="107.531" r="14.1685" transform="rotate(-6.55606 50.415 107.531)" fill="#101010"/>
<rect x="43.1729" y="101.781" width="13.0787" height="10.5635" rx="2.17978" transform="rotate(-6.55606 43.1729 101.781)" stroke="#E5D55F" stroke-width="2.17978"/>
<rect x="47.5027" y="110.819" width="6.53933" height="4.6949" transform="rotate(-6.55606 47.5027 110.819)" fill="#E5D55F"/>
<path d="M70.1131 114.983L67.8506 95.2961L82.0388 93.6655L82.5337 97.972L73.6902 98.9883L74.079 102.372L82.192 101.44L82.687 105.746L74.5739 106.678L74.9628 110.062L83.7679 109.05L84.2629 113.357L70.1131 114.983ZM90.4186 92.7025L94.3068 98.0604L94.4606 98.0427L97.0705 91.938L103.03 91.2531L98.2786 101.772L105.523 110.913L99.4099 111.616L95.393 106.156L95.2392 106.173L92.5657 112.402L86.4906 113.1L91.396 102.563L84.4203 93.3918L90.4186 92.7025ZM107.597 110.675L105.335 90.9882L113.832 90.0116C115.293 89.8437 116.605 89.9851 117.767 90.436C118.929 90.8868 119.875 91.5995 120.604 92.5741C121.333 93.5487 121.777 94.7345 121.938 96.1315C122.1 97.5414 121.926 98.7982 121.417 99.9022C120.914 101.005 120.13 101.901 119.066 102.588C118.009 103.274 116.731 103.703 115.231 103.876L110.156 104.459L109.678 100.306L113.677 99.8469C114.305 99.7747 114.828 99.6043 115.245 99.3356C115.668 99.0597 115.974 98.7031 116.164 98.2657C116.36 97.8276 116.427 97.3298 116.362 96.7723C116.298 96.2083 116.121 95.7417 115.831 95.3724C115.548 94.9959 115.17 94.7277 114.697 94.5678C114.23 94.4007 113.682 94.3532 113.054 94.4254L111.17 94.642L112.942 110.061L107.597 110.675ZM125.361 108.633L123.099 88.9466L137.287 87.316L137.782 91.6225L128.938 92.6388L129.327 96.0225L137.44 95.0901L137.935 99.3965L129.822 100.329L130.211 103.713L139.016 102.701L139.511 107.007L125.361 108.633ZM142.2 106.698L139.938 87.0114L148.435 86.0348C149.896 85.8669 151.205 85.9859 152.362 86.3919C153.519 86.7978 154.46 87.4657 155.183 88.3954C155.907 89.3252 156.349 90.4885 156.51 91.8856C156.672 93.2954 156.494 94.5203 155.978 95.5601C155.467 96.5992 154.676 97.4303 153.605 98.0534C152.54 98.6757 151.258 99.073 149.759 99.2454L144.683 99.8287L144.206 95.676L148.205 95.2165C148.833 95.1443 149.359 95.0059 149.784 94.8013C150.214 94.5895 150.528 94.297 150.725 93.9237C150.929 93.5496 150.998 93.0838 150.934 92.5263C150.87 91.9624 150.695 91.5182 150.411 91.1937C150.133 90.8621 149.76 90.6387 149.292 90.5237C148.83 90.4015 148.285 90.3764 147.657 90.4486L145.773 90.6652L147.545 106.084L142.2 106.698ZM152.697 96.3364L158.657 104.807L152.851 105.474L147.006 96.9905L152.697 96.3364ZM163.364 84.3191L165.626 104.006L160.282 104.62L158.019 84.9334L163.364 84.3191ZM168.159 103.715L165.896 84.0281L180.085 82.3975L180.58 86.7039L171.736 87.7202L172.125 91.1039L180.238 90.1715L180.733 94.4779L172.62 95.4103L173.009 98.7939L181.814 97.782L182.309 102.088L168.159 103.715ZM199.769 80.1352L202.031 99.8218L197.571 100.334L189.269 90.8087L189.154 90.822L190.342 101.165L184.998 101.779L182.735 82.0928L187.272 81.5714L195.455 91.0718L195.608 91.0541L194.424 80.7495L199.769 80.1352ZM221.525 85.1149L216.103 85.7379C216.013 85.2938 215.864 84.8986 215.655 84.5525C215.453 84.2056 215.193 83.9174 214.874 83.6878C214.561 83.451 214.195 83.2854 213.775 83.1908C213.354 83.0898 212.887 83.0688 212.375 83.1277C211.478 83.2308 210.743 83.5359 210.172 84.0432C209.607 84.5496 209.211 85.2282 208.984 86.0789C208.763 86.9289 208.719 87.9242 208.85 89.0649C208.988 90.2696 209.264 91.2606 209.678 92.0376C210.098 92.8075 210.639 93.3622 211.301 93.7016C211.963 94.0346 212.726 94.1514 213.591 94.052C214.085 93.9953 214.52 93.8836 214.897 93.7169C215.273 93.5438 215.592 93.3221 215.853 93.0519C216.114 92.7816 216.315 92.4696 216.456 92.1157C216.603 91.7547 216.684 91.359 216.7 90.9287L222.126 90.3441C222.157 91.1846 222.021 92.0605 221.717 92.9721C221.412 93.8772 220.929 94.7378 220.27 95.5537C219.616 96.3626 218.77 97.0507 217.731 97.6181C216.693 98.1855 215.453 98.552 214.011 98.7177C212.204 98.9254 210.538 98.724 209.013 98.1136C207.495 97.5024 206.233 96.4917 205.227 95.0815C204.227 93.6705 203.602 91.8756 203.351 89.6968C203.099 87.5051 203.31 85.6109 203.984 84.0141C204.657 82.4109 205.667 81.1423 207.014 80.2084C208.36 79.268 209.918 78.6961 211.686 78.4929C212.93 78.35 214.093 78.3883 215.177 78.6079C216.26 78.8275 217.234 79.2189 218.097 79.7819C218.96 80.3386 219.686 81.0635 220.275 81.9567C220.865 82.8499 221.281 83.9026 221.525 85.1149ZM225.363 97.1403L223.101 77.4537L237.289 75.8231L237.784 80.1296L228.94 81.1459L229.329 84.5296L237.442 83.5971L237.937 87.9036L229.824 88.836L230.213 92.2196L239.018 91.2077L239.513 95.5141L225.363 97.1403ZM251.259 80.4509C251.134 79.816 250.836 79.3437 250.366 79.0342C249.902 78.7239 249.237 78.6185 248.372 78.7179C247.821 78.7813 247.377 78.9005 247.04 79.0756C246.708 79.2435 246.472 79.4492 246.331 79.6927C246.191 79.9361 246.133 80.2024 246.16 80.4915C246.175 80.7301 246.241 80.94 246.359 81.1212C246.483 81.2952 246.663 81.4466 246.898 81.5754C247.133 81.6977 247.427 81.8003 247.781 81.883C248.135 81.9657 248.551 82.0283 249.03 82.0706L250.685 82.2311C251.8 82.3366 252.768 82.5338 253.587 82.8228C254.406 83.1118 255.091 83.4843 255.644 83.9402C256.195 84.3898 256.623 84.9185 256.926 85.5264C257.236 86.1336 257.438 86.8117 257.53 87.5608C257.673 88.856 257.475 89.989 256.937 90.9598C256.4 91.9307 255.562 92.7185 254.423 93.3233C253.292 93.9273 251.893 94.3251 250.226 94.5166C248.515 94.7132 246.993 94.6317 245.66 94.272C244.333 93.9116 243.256 93.2464 242.431 92.2764C241.611 91.2993 241.103 89.9877 240.907 88.3414L245.982 87.7581C246.084 88.3568 246.292 88.8458 246.609 89.225C246.925 89.6042 247.339 89.8716 247.85 90.0271C248.368 90.1818 248.966 90.2202 249.646 90.1421C250.216 90.0766 250.685 89.9512 251.054 89.766C251.422 89.5808 251.691 89.3519 251.861 89.0791C252.031 88.8064 252.101 88.5094 252.07 88.1883C252.029 87.8878 251.9 87.6365 251.682 87.4343C251.469 87.2249 251.138 87.0552 250.688 86.9251C250.238 86.7886 249.638 86.6822 248.889 86.606L246.879 86.4084C245.093 86.2306 243.646 85.7574 242.538 84.9887C241.436 84.2128 240.799 83.0555 240.629 81.5167C240.479 80.2678 240.687 79.1369 241.252 78.124C241.823 77.1039 242.678 76.2622 243.816 75.599C244.96 74.935 246.311 74.5136 247.868 74.3346C249.457 74.152 250.862 74.2599 252.084 74.6585C253.305 75.0571 254.285 75.7042 255.024 76.5996C255.769 77.488 256.219 78.5758 256.373 79.8632L251.259 80.4509Z" fill="#101010"/>
<defs>
<clipPath id="clip0_1_2653">
<rect width="21.7978" height="21.7978" fill="white" transform="translate(277.826 36.3411) rotate(-21.5561)"/>
</clipPath>
</defs>
</svg>
