<svg width="211" height="104" viewBox="0 0 211 104" fill="none" xmlns="http://www.w3.org/2000/svg">
<path d="M142.243 5.3753H70.5601C64.941 5.3753 60.3858 9.93051 60.3858 15.5496V27.1114C60.3858 27.6222 59.9717 28.0363 59.4608 28.0363H15.5262C9.90707 28.0363 5.35186 32.5915 5.35186 38.2107V63.184C5.35186 68.8031 9.90706 73.3584 15.5262 73.3584H40.0371C40.5479 73.3584 40.962 73.7725 40.962 74.2833V89.0823C40.962 94.7015 45.5172 99.2567 51.1364 99.2567H161.667C167.286 99.2567 171.841 94.7015 171.841 89.0823V74.2833C171.841 73.7725 172.255 73.3584 172.766 73.3584H195.427C201.046 73.3584 205.601 68.8032 205.601 63.184V38.2107C205.601 32.5915 201.046 28.0363 195.427 28.0363H153.342C152.831 28.0363 152.417 27.6222 152.417 27.1114V15.5496C152.417 9.9305 147.862 5.3753 142.243 5.3753Z" fill="#D05665" stroke="white" stroke-width="9.2494" stroke-linejoin="round"/>
<path d="M85.7559 17.4953H90.3215V28.2688C90.3215 29.5497 90.015 30.6583 89.4018 31.5944C88.7942 32.525 87.9457 33.2449 86.8563 33.754C85.7669 34.2577 84.5023 34.5095 83.0626 34.5095C81.6119 34.5095 80.3418 34.2577 79.2525 33.754C78.1631 33.2449 77.3145 32.525 76.7069 31.5944C76.1047 30.6583 75.8036 29.5497 75.8036 28.2688V17.4953H80.3692V27.8746C80.3692 28.3947 80.4842 28.86 80.7141 29.2706C80.944 29.6757 81.2615 29.9932 81.6666 30.2231C82.0772 30.453 82.5425 30.568 83.0626 30.568C83.5881 30.568 84.0534 30.453 84.4585 30.2231C84.8636 29.9932 85.1811 29.6757 85.4111 29.2706C85.641 28.86 85.7559 28.3947 85.7559 27.8746V17.4953ZM101.557 22.7506C101.513 22.2032 101.308 21.7762 100.941 21.4697C100.58 21.1631 100.03 21.0098 99.2905 21.0098C98.8197 21.0098 98.4338 21.0673 98.1327 21.1823C97.8371 21.2917 97.6181 21.4423 97.4758 21.6339C97.3334 21.8255 97.2595 22.0445 97.254 22.2908C97.2431 22.4934 97.2787 22.6767 97.3608 22.841C97.4484 22.9997 97.5852 23.1448 97.7714 23.2762C97.9575 23.4021 98.1956 23.5171 98.4858 23.6211C98.7759 23.7251 99.1208 23.8181 99.5204 23.9003L100.9 24.1959C101.831 24.3929 102.627 24.653 103.289 24.976C103.952 25.2989 104.494 25.6794 104.915 26.1174C105.337 26.5498 105.646 27.037 105.843 27.579C106.046 28.1209 106.15 28.7122 106.155 29.3527C106.15 30.4585 105.873 31.3946 105.326 32.161C104.778 32.9274 103.996 33.5104 102.977 33.91C101.965 34.3097 100.747 34.5095 99.3233 34.5095C97.8617 34.5095 96.5862 34.2932 95.4968 33.8608C94.4129 33.4283 93.5698 32.7632 92.9677 31.8654C92.371 30.9621 92.0699 29.807 92.0644 28.4001H96.4C96.4274 28.9147 96.5561 29.3472 96.786 29.6975C97.0159 30.0479 97.3389 30.3134 97.7549 30.4941C98.1765 30.6747 98.6774 30.765 99.2576 30.765C99.7449 30.765 100.153 30.7048 100.481 30.5844C100.81 30.464 101.059 30.297 101.228 30.0835C101.398 29.87 101.486 29.6264 101.491 29.3527C101.486 29.0954 101.401 28.8709 101.237 28.6793C101.078 28.4823 100.815 28.3071 100.448 28.1538C100.082 27.995 99.5861 27.8472 98.962 27.7104L97.2869 27.3491C95.7979 27.0261 94.6236 26.4869 93.7642 25.7314C92.9102 24.9705 92.4859 23.9331 92.4914 22.6193C92.4859 21.5518 92.7706 20.6184 93.3454 19.8192C93.9257 19.0144 94.7276 18.3876 95.7513 17.9387C96.7805 17.4898 97.9602 17.2654 99.2905 17.2654C100.648 17.2654 101.822 17.4926 102.813 17.9469C103.804 18.4013 104.568 19.0418 105.104 19.8684C105.646 20.6896 105.92 21.6503 105.925 22.7506H101.557ZM107.892 34.3124V17.4953H120.012V21.174H112.458V24.0645H119.388V27.7432H112.458V30.6337H119.979V34.3124H107.892ZM122.276 34.3124V17.4953H129.535C130.784 17.4953 131.876 17.7225 132.812 18.1769C133.748 18.6312 134.476 19.2854 134.996 20.1394C135.516 20.9934 135.776 22.0171 135.776 23.2105C135.776 24.4148 135.508 25.4303 134.971 26.2569C134.44 27.0836 133.693 27.7076 132.73 28.1292C131.772 28.5507 130.652 28.7614 129.371 28.7614H125.035V25.2141H128.451C128.988 25.2141 129.445 25.1484 129.823 25.017C130.206 24.8802 130.499 24.6639 130.701 24.3683C130.909 24.0727 131.013 23.6868 131.013 23.2105C131.013 22.7288 130.909 22.3373 130.701 22.0363C130.499 21.7297 130.206 21.5052 129.823 21.3629C129.445 21.2151 128.988 21.1412 128.451 21.1412H126.842V34.3124H122.276ZM132.13 26.5936L136.334 34.3124H131.375L127.269 26.5936H132.13Z" fill="white"/>
<path d="M18.4596 60.2105V43.3935H30.5798V47.0722H23.0252V49.9626H29.9557V53.6414H23.0252V56.5318H30.5469V60.2105H18.4596ZM37.7381 43.3935L40.4972 48.2875H40.6286L43.4204 43.3935H48.5116L43.4861 51.802L48.7086 60.2105H43.4861L40.6286 55.218H40.4972L37.6396 60.2105H32.4499L37.6067 51.802L32.6142 43.3935H37.7381ZM50.4803 60.2105V43.3935H57.7392C58.9873 43.3935 60.0795 43.6398 61.0156 44.1325C61.9517 44.6252 62.6798 45.3177 63.1998 46.21C63.7199 47.1023 63.9799 48.1452 63.9799 49.3386C63.9799 50.5429 63.7117 51.5858 63.1752 52.4671C62.6442 53.3485 61.8969 54.0273 60.9335 54.5036C59.9754 54.9798 58.856 55.218 57.575 55.218H53.2393V51.6706H56.6553C57.1918 51.6706 57.6489 51.5776 58.0266 51.3914C58.4098 51.1998 58.7027 50.9288 58.9052 50.5785C59.1132 50.2281 59.2173 49.8148 59.2173 49.3386C59.2173 48.8568 59.1132 48.4462 58.9052 48.1068C58.7027 47.762 58.4098 47.4992 58.0266 47.3185C57.6489 47.1324 57.1918 47.0393 56.6553 47.0393H55.0458V60.2105H50.4803ZM65.655 60.2105V43.3935H77.7752V47.0722H70.2206V49.9626H77.1511V53.6414H70.2206V56.5318H77.7423V60.2105H65.655ZM80.0395 60.2105V43.3935H87.2984C88.5466 43.3935 89.6387 43.6206 90.5748 44.075C91.5109 44.5294 92.239 45.1836 92.759 46.0376C93.2791 46.8915 93.5391 47.9152 93.5391 49.1086C93.5391 50.313 93.2709 51.3285 92.7344 52.1551C92.2034 52.9817 91.4562 53.6058 90.4927 54.0273C89.5347 54.4488 88.4152 54.6596 87.1342 54.6596H82.7985V51.1122H86.2145C86.751 51.1122 87.2081 51.0465 87.5858 50.9152C87.969 50.7783 88.2619 50.5621 88.4644 50.2665C88.6725 49.9708 88.7765 49.5849 88.7765 49.1086C88.7765 48.6269 88.6725 48.2355 88.4644 47.9344C88.2619 47.6278 87.969 47.4034 87.5858 47.2611C87.2081 47.1133 86.751 47.0393 86.2145 47.0393H84.6051V60.2105H80.0395ZM89.8932 52.4918L94.0975 60.2105H89.1378L85.0321 52.4918H89.8932Z" fill="white"/>
<path d="M129.39 43.3935V60.2105H124.825V43.3935H129.39ZM131.554 60.2105V43.3935H143.674V47.0722H136.12V49.9626H143.05V53.6414H136.12V56.5318H143.641V60.2105H131.554ZM160.489 43.3935V60.2105H156.679L150.602 51.375H150.504V60.2105H145.938V43.3935H149.814L155.792 52.1962H155.924V43.3935H160.489ZM178.349 49.6999H173.718C173.685 49.3167 173.597 48.969 173.455 48.657C173.318 48.345 173.127 48.0767 172.88 47.8523C172.639 47.6224 172.346 47.4472 172.002 47.3268C171.657 47.2008 171.265 47.1379 170.827 47.1379C170.061 47.1379 169.412 47.324 168.881 47.6963C168.356 48.0685 167.956 48.6023 167.682 49.2975C167.414 49.9927 167.28 50.8276 167.28 51.802C167.28 52.8312 167.417 53.6934 167.691 54.3886C167.97 55.0784 168.372 55.5984 168.898 55.9488C169.423 56.2937 170.055 56.4661 170.794 56.4661C171.216 56.4661 171.594 56.4141 171.928 56.3101C172.262 56.2006 172.552 56.0446 172.798 55.842C173.044 55.6395 173.244 55.3959 173.398 55.1112C173.556 54.8211 173.663 54.4954 173.718 54.1341L178.349 54.1669C178.294 54.8786 178.094 55.6039 177.75 56.3429C177.405 57.0765 176.915 57.7553 176.28 58.3794C175.65 58.998 174.87 59.4961 173.939 59.8739C173.009 60.2516 171.928 60.4405 170.696 60.4405C169.152 60.4405 167.767 60.1093 166.541 59.4469C165.32 58.7845 164.354 57.8101 163.642 56.5236C162.936 55.2371 162.583 53.6633 162.583 51.802C162.583 49.9298 162.944 48.3532 163.667 47.0722C164.39 45.7857 165.364 44.814 166.59 44.1571C167.816 43.4947 169.185 43.1635 170.696 43.1635C171.758 43.1635 172.735 43.3086 173.627 43.5987C174.52 43.8889 175.303 44.3131 175.976 44.8715C176.649 45.4244 177.191 46.106 177.602 46.9162C178.012 47.7264 178.261 48.6543 178.349 49.6999ZM180.42 60.2105V43.3935H192.54V47.0722H184.986V49.9626H191.916V53.6414H184.986V56.5318H192.508V60.2105H180.42Z" fill="white"/>
<line x1="97.8435" y1="54.8594" x2="118.192" y2="54.8594" stroke="white" stroke-width="3.69976"/>
<path d="M58.2289 87.9589H51.7582V71.1418H58.1632C59.8931 71.1418 61.3875 71.4785 62.6466 72.1518C63.9112 72.8197 64.8856 73.7832 65.5699 75.0423C66.2597 76.2959 66.6046 77.7986 66.6046 79.5504C66.6046 81.3021 66.2624 82.8076 65.5781 84.0667C64.8938 85.3203 63.9249 86.2838 62.6713 86.9571C61.4177 87.625 59.9368 87.9589 58.2289 87.9589ZM56.3238 84.0831H58.0646C58.8967 84.0831 59.6057 83.949 60.1914 83.6807C60.7826 83.4125 61.2315 82.9499 61.5381 82.293C61.8501 81.6361 62.0061 80.7219 62.0061 79.5504C62.0061 78.3789 61.8474 77.4647 61.5299 76.8077C61.2178 76.1508 60.758 75.6882 60.1503 75.42C59.5482 75.1518 58.8091 75.0176 57.9333 75.0176H56.3238V84.0831ZM68.717 87.9589V71.1418H80.8371V74.8206H73.2825V77.711H80.213V81.3897H73.2825V84.2802H80.8042V87.9589H68.717ZM92.1669 76.3972C92.1231 75.8497 91.9178 75.4227 91.551 75.1162C91.1897 74.8096 90.6395 74.6563 89.9005 74.6563C89.4297 74.6563 89.0438 74.7138 88.7427 74.8288C88.4471 74.9383 88.2281 75.0888 88.0858 75.2804C87.9434 75.472 87.8695 75.691 87.864 75.9373C87.8531 76.1399 87.8887 76.3233 87.9708 76.4875C88.0584 76.6462 88.1952 76.7913 88.3814 76.9227C88.5675 77.0486 88.8056 77.1636 89.0958 77.2676C89.3859 77.3716 89.7308 77.4647 90.1304 77.5468L91.5099 77.8424C92.4406 78.0395 93.2371 78.2995 93.8995 78.6225C94.5619 78.9455 95.1038 79.3259 95.5253 79.7639C95.9469 80.1963 96.2562 80.6835 96.4532 81.2255C96.6558 81.7675 96.7598 82.3587 96.7653 82.9992C96.7598 84.105 96.4833 85.0411 95.9359 85.8075C95.3885 86.5739 94.6057 87.1569 93.5874 87.5565C92.5747 87.9562 91.3567 88.156 89.9333 88.156C88.4717 88.156 87.1962 87.9397 86.1068 87.5073C85.0229 87.0748 84.1798 86.4097 83.5777 85.5119C82.981 84.6086 82.6799 83.4536 82.6744 82.0467H87.0101C87.0374 82.5612 87.1661 82.9937 87.396 83.3441C87.6259 83.6944 87.9489 83.9599 88.3649 84.1406C88.7865 84.3212 89.2874 84.4116 89.8676 84.4116C90.3549 84.4116 90.7627 84.3513 91.0911 84.2309C91.4196 84.1105 91.6687 83.9435 91.8384 83.73C92.0081 83.5165 92.0957 83.2729 92.1012 82.9992C92.0957 82.7419 92.0108 82.5174 91.8466 82.3258C91.6878 82.1288 91.4251 81.9536 91.0583 81.8003C90.6915 81.6416 90.1961 81.4937 89.572 81.3569L87.8969 80.9956C86.4079 80.6726 85.2336 80.1334 84.3742 79.3779C83.5202 78.617 83.0959 77.5796 83.1014 76.2658C83.0959 75.1983 83.3806 74.2649 83.9554 73.4657C84.5357 72.6609 85.3376 72.0341 86.3613 71.5852C87.3905 71.1364 88.5702 70.9119 89.9005 70.9119C91.2581 70.9119 92.4324 71.1391 93.4232 71.5935C94.4141 72.0478 95.1777 72.6883 95.7142 73.5149C96.2562 74.3361 96.5299 75.2968 96.5354 76.3972H92.1669ZM103.068 71.1418V87.9589H98.502V71.1418H103.068ZM116.153 76.6928C116.081 76.4026 115.969 76.1481 115.816 75.9291C115.663 75.7047 115.471 75.5158 115.241 75.3625C115.017 75.2038 114.754 75.0861 114.453 75.0094C114.157 74.9273 113.831 74.8863 113.476 74.8863C112.709 74.8863 112.055 75.0696 111.513 75.4364C110.977 75.8032 110.566 76.3315 110.281 77.0212C110.002 77.711 109.863 78.5431 109.863 79.5175C109.863 80.5029 109.997 81.3459 110.265 82.0467C110.533 82.7474 110.933 83.2838 111.464 83.6561C111.995 84.0284 112.654 84.2145 113.443 84.2145C114.138 84.2145 114.716 84.1132 115.175 83.9107C115.641 83.7081 115.988 83.4207 116.218 83.0485C116.448 82.6762 116.563 82.2383 116.563 81.7346L117.351 81.8167H113.508V78.565H120.964V80.897C120.964 82.4299 120.639 83.741 119.987 84.8303C119.341 85.9143 118.449 86.7463 117.31 87.3266C116.177 87.9014 114.877 88.1888 113.41 88.1888C111.773 88.1888 110.336 87.8412 109.099 87.146C107.862 86.4507 106.895 85.4599 106.2 84.1734C105.51 82.887 105.166 81.3569 105.166 79.5832C105.166 78.1927 105.376 76.961 105.798 75.8881C106.225 74.8151 106.816 73.9091 107.572 73.1701C108.327 72.4256 109.2 71.8644 110.191 71.4867C111.182 71.1035 112.244 70.9119 113.377 70.9119C114.373 70.9119 115.299 71.0542 116.153 71.3389C117.012 71.6181 117.77 72.0177 118.427 72.5378C119.09 73.0524 119.623 73.6627 120.028 74.3689C120.433 75.0751 120.68 75.8497 120.767 76.6928H116.153ZM137.644 71.1418V87.9589H133.834L127.757 79.1234H127.659V87.9589H123.093V71.1418H126.969L132.947 79.9445H133.078V71.1418H137.644Z" fill="white"/>
<circle cx="151.486" cy="79.8331" r="8.78692" stroke="white" stroke-width="0.92494"/>
<path d="M156.68 78.7818H153.716C153.695 78.5366 153.639 78.3141 153.548 78.1144C153.46 77.9147 153.338 77.743 153.18 77.5994C153.026 77.4522 152.838 77.3401 152.618 77.263C152.397 77.1824 152.147 77.1421 151.866 77.1421C151.376 77.1421 150.961 77.2613 150.621 77.4995C150.284 77.7378 150.029 78.0793 149.853 78.5243C149.682 78.9693 149.596 79.5035 149.596 80.1272C149.596 80.7858 149.684 81.3377 149.859 81.7826C150.037 82.2241 150.295 82.5569 150.631 82.7811C150.968 83.0018 151.372 83.1122 151.845 83.1122C152.115 83.1122 152.357 83.0789 152.57 83.0124C152.784 82.9423 152.97 82.8424 153.128 82.7128C153.285 82.5832 153.413 82.4273 153.511 82.2451C153.613 82.0594 153.681 81.8509 153.716 81.6197L156.68 81.6407C156.645 82.0962 156.517 82.5604 156.297 83.0334C156.076 83.5029 155.762 83.9373 155.356 84.3367C154.953 84.7326 154.454 85.0514 153.858 85.2932C153.262 85.5349 152.57 85.6558 151.782 85.6558C150.794 85.6558 149.908 85.4438 149.123 85.0199C148.342 84.596 147.723 83.9723 147.268 83.149C146.816 82.3257 146.59 81.3184 146.59 80.1272C146.59 78.929 146.821 77.9199 147.284 77.1001C147.746 76.2768 148.37 75.6549 149.154 75.2345C149.939 74.8105 150.815 74.5986 151.782 74.5986C152.462 74.5986 153.087 74.6914 153.658 74.8771C154.229 75.0628 154.73 75.3343 155.161 75.6917C155.592 76.0455 155.939 76.4817 156.202 77.0003C156.465 77.5188 156.624 78.1126 156.68 78.7818Z" fill="white"/>
</svg>
