<svg width="193" height="44" viewBox="0 0 193 44" fill="none" xmlns="http://www.w3.org/2000/svg">
<path d="M0.588 18.088C0.784 18.0973 1.04067 18.1067 1.358 18.116C1.67533 18.1253 1.988 18.13 2.296 18.13C2.73467 18.13 3.15467 18.1253 3.556 18.116C3.95733 18.1067 4.242 18.102 4.41 18.102C5.39 18.102 6.12733 18.3073 6.622 18.718C7.11667 19.1287 7.364 19.656 7.364 20.3C7.364 20.6267 7.294 20.9487 7.154 21.266C7.02333 21.574 6.79933 21.8587 6.482 22.12C6.174 22.372 5.75867 22.5773 5.236 22.736V22.764C5.97333 22.8573 6.54733 23.0347 6.958 23.296C7.378 23.548 7.672 23.8467 7.84 24.192C8.008 24.5373 8.092 24.9013 8.092 25.284C8.092 25.816 7.95667 26.2873 7.686 26.698C7.42467 27.0993 7.042 27.4167 6.538 27.65C6.034 27.8833 5.432 28 4.732 28C4.52667 28 4.21867 27.9953 3.808 27.986C3.39733 27.9673 2.90267 27.958 2.324 27.958C1.99733 27.958 1.67533 27.9627 1.358 27.972C1.04067 27.972 0.784 27.9813 0.588 28V27.72C0.905333 27.7013 1.14333 27.664 1.302 27.608C1.47 27.552 1.582 27.44 1.638 27.272C1.694 27.104 1.722 26.852 1.722 26.516V19.572C1.722 19.2267 1.694 18.9747 1.638 18.816C1.582 18.648 1.47 18.536 1.302 18.48C1.14333 18.4147 0.905333 18.3773 0.588 18.368V18.088ZM4.06 18.368C3.63067 18.368 3.35067 18.4473 3.22 18.606C3.08933 18.7647 3.024 19.0867 3.024 19.572V26.516C3.024 26.8427 3.052 27.09 3.108 27.258C3.164 27.426 3.26667 27.538 3.416 27.594C3.56533 27.65 3.78467 27.678 4.074 27.678C4.98867 27.678 5.65133 27.468 6.062 27.048C6.482 26.6187 6.692 26.012 6.692 25.228C6.692 24.5093 6.496 23.954 6.104 23.562C5.72133 23.17 5.08667 22.974 4.2 22.974H2.758C2.758 22.974 2.758 22.9367 2.758 22.862C2.758 22.778 2.758 22.736 2.758 22.736H3.962C4.51267 22.736 4.93733 22.6333 5.236 22.428C5.53467 22.2133 5.74 21.9333 5.852 21.588C5.964 21.2333 6.02 20.8553 6.02 20.454C6.02 19.7633 5.866 19.2453 5.558 18.9C5.25933 18.5453 4.76 18.368 4.06 18.368ZM12.5587 20.594C13.156 20.594 13.6927 20.7247 14.1687 20.986C14.6447 21.2473 15.0227 21.658 15.3027 22.218C15.592 22.778 15.7367 23.506 15.7367 24.402C15.7367 25.298 15.592 26.026 15.3027 26.586C15.0227 27.1367 14.6447 27.5427 14.1687 27.804C13.6927 28.0653 13.156 28.196 12.5587 28.196C11.9707 28.196 11.434 28.0653 10.9487 27.804C10.4727 27.5427 10.09 27.1367 9.80066 26.586C9.52066 26.026 9.38066 25.298 9.38066 24.402C9.38066 23.506 9.52066 22.778 9.80066 22.218C10.09 21.658 10.4727 21.2473 10.9487 20.986C11.434 20.7247 11.9707 20.594 12.5587 20.594ZM12.5587 20.874C12.0267 20.874 11.588 21.1493 11.2427 21.7C10.9067 22.2507 10.7387 23.1513 10.7387 24.402C10.7387 25.6527 10.9067 26.5533 11.2427 27.104C11.588 27.6453 12.0267 27.916 12.5587 27.916C13.0907 27.916 13.5247 27.6453 13.8607 27.104C14.206 26.5533 14.3787 25.6527 14.3787 24.402C14.3787 23.1513 14.206 22.2507 13.8607 21.7C13.5247 21.1493 13.0907 20.874 12.5587 20.874ZM19.1282 20.79V21.084C18.9508 21.084 18.8015 21.126 18.6802 21.21C18.5588 21.294 18.5448 21.4107 18.6382 21.56L22.3762 27.006C22.5348 27.2393 22.6748 27.4073 22.7962 27.51C22.9175 27.6033 23.0668 27.6687 23.2442 27.706V28C23.1508 27.9907 23.0062 27.9813 22.8102 27.972C22.6235 27.9533 22.4368 27.944 22.2502 27.944C21.9608 27.944 21.6482 27.9533 21.3122 27.972C20.9855 27.9813 20.7475 27.9907 20.5982 28V27.706C20.7848 27.706 20.9388 27.664 21.0602 27.58C21.1815 27.4867 21.1908 27.37 21.0882 27.23L17.3502 21.784C17.1635 21.5133 17.0142 21.336 16.9022 21.252C16.7902 21.1587 16.6502 21.1027 16.4822 21.084V20.79C16.5755 20.7993 16.7202 20.8133 16.9162 20.832C17.1122 20.8413 17.2988 20.846 17.4762 20.846C17.7748 20.846 18.0875 20.8413 18.4142 20.832C18.7408 20.8133 18.9788 20.7993 19.1282 20.79ZM19.5062 24.346C19.5062 24.346 19.5155 24.3787 19.5342 24.444C19.5528 24.5 19.5715 24.5607 19.5902 24.626C19.6182 24.6913 19.6322 24.724 19.6322 24.724L18.4702 26.236C18.2275 26.5533 18.0968 26.8193 18.0782 27.034C18.0688 27.2487 18.1575 27.412 18.3442 27.524C18.5308 27.6267 18.7875 27.692 19.1142 27.72V28C18.9555 27.9907 18.7782 27.986 18.5822 27.986C18.3862 27.9767 18.1948 27.972 18.0082 27.972C17.8308 27.9627 17.6675 27.958 17.5182 27.958C17.3035 27.958 17.1075 27.9627 16.9302 27.972C16.7622 27.972 16.6035 27.9813 16.4542 28V27.72C16.6315 27.7013 16.8135 27.622 17.0002 27.482C17.1962 27.3327 17.4248 27.0853 17.6862 26.74L19.5062 24.346ZM22.9642 20.79V21.07C22.7868 21.0887 22.5908 21.182 22.3762 21.35C22.1708 21.5087 21.9562 21.742 21.7322 22.05L20.1222 24.276C20.1222 24.276 20.1128 24.248 20.0942 24.192C20.0755 24.1267 20.0568 24.066 20.0382 24.01C20.0195 23.9447 20.0102 23.912 20.0102 23.912L21.1022 22.386C21.3075 22.0967 21.4382 21.8587 21.4942 21.672C21.5502 21.4853 21.5175 21.3453 21.3962 21.252C21.2842 21.1493 21.0602 21.0887 20.7242 21.07V20.79C20.9668 20.7993 21.1675 20.8087 21.3262 20.818C21.4942 20.8273 21.6855 20.832 21.9002 20.832C22.1148 20.832 22.3062 20.8273 22.4742 20.818C22.6515 20.8087 22.8148 20.7993 22.9642 20.79Z" fill="#88939E"/>
<line x1="48.5" x2="48.5" y2="44" stroke="#292929" stroke-opacity="0.7"/>
<path d="M80.288 18.088C80.2507 18.4427 80.2227 18.788 80.204 19.124C80.1947 19.4507 80.19 19.7027 80.19 19.88C80.19 20.104 80.1947 20.314 80.204 20.51C80.2133 20.706 80.2227 20.8787 80.232 21.028H79.91C79.8447 20.3747 79.756 19.8613 79.644 19.488C79.532 19.1053 79.336 18.83 79.056 18.662C78.776 18.494 78.342 18.41 77.754 18.41H76.998V26.376C76.998 26.7493 77.0307 27.0293 77.096 27.216C77.1707 27.4027 77.3107 27.5287 77.516 27.594C77.7213 27.6593 78.02 27.7013 78.412 27.72V28C78.1693 27.9813 77.8613 27.972 77.488 27.972C77.1147 27.9627 76.7367 27.958 76.354 27.958C75.934 27.958 75.5373 27.9627 75.164 27.972C74.8 27.972 74.506 27.9813 74.282 28V27.72C74.674 27.7013 74.9727 27.6593 75.178 27.594C75.3833 27.5287 75.5187 27.4027 75.584 27.216C75.6587 27.0293 75.696 26.7493 75.696 26.376V18.41H74.94C74.3613 18.41 73.9273 18.494 73.638 18.662C73.358 18.83 73.162 19.1053 73.05 19.488C72.938 19.8613 72.8493 20.3747 72.784 21.028H72.462C72.4807 20.8787 72.49 20.706 72.49 20.51C72.4993 20.314 72.504 20.104 72.504 19.88C72.504 19.7027 72.4947 19.4507 72.476 19.124C72.4667 18.788 72.4433 18.4427 72.406 18.088C72.798 18.0973 73.2227 18.1067 73.68 18.116C74.1467 18.1253 74.6133 18.13 75.08 18.13C75.5467 18.13 75.9713 18.13 76.354 18.13C76.7367 18.13 77.1567 18.13 77.614 18.13C78.0807 18.13 78.5473 18.1253 79.014 18.116C79.4807 18.1067 79.9053 18.0973 80.288 18.088ZM83.9018 20.594C84.7231 20.594 85.3624 20.846 85.8198 21.35C86.2864 21.8447 86.5198 22.6193 86.5198 23.674H81.5778L81.5638 23.408H85.1758C85.1944 22.9507 85.1571 22.5307 85.0638 22.148C84.9704 21.756 84.8211 21.4433 84.6158 21.21C84.4198 20.9767 84.1631 20.86 83.8458 20.86C83.4164 20.86 83.0338 21.0747 82.6978 21.504C82.3711 21.9333 82.1751 22.6147 82.1098 23.548L82.1517 23.604C82.1331 23.744 82.1191 23.898 82.1098 24.066C82.1004 24.234 82.0958 24.402 82.0958 24.57C82.0958 25.2047 82.1984 25.7507 82.4038 26.208C82.6091 26.6653 82.8751 27.0153 83.2018 27.258C83.5378 27.4913 83.8831 27.608 84.2378 27.608C84.5178 27.608 84.7838 27.566 85.0358 27.482C85.2878 27.3887 85.5211 27.2393 85.7358 27.034C85.9504 26.8287 86.1371 26.5533 86.2958 26.208L86.5758 26.32C86.4731 26.628 86.3051 26.9267 86.0718 27.216C85.8384 27.5053 85.5444 27.7433 85.1898 27.93C84.8351 28.1073 84.4244 28.196 83.9578 28.196C83.2858 28.196 82.7071 28.042 82.2218 27.734C81.7458 27.426 81.3771 27.0013 81.1158 26.46C80.8638 25.9093 80.7378 25.2793 80.7378 24.57C80.7378 23.7487 80.8684 23.044 81.1298 22.456C81.3911 21.8587 81.7598 21.4013 82.2358 21.084C82.7118 20.7573 83.2671 20.594 83.9018 20.594ZM89.9524 20.79V21.084C89.775 21.084 89.6257 21.126 89.5044 21.21C89.383 21.294 89.369 21.4107 89.4624 21.56L93.2004 27.006C93.359 27.2393 93.499 27.4073 93.6204 27.51C93.7417 27.6033 93.891 27.6687 94.0684 27.706V28C93.975 27.9907 93.8304 27.9813 93.6344 27.972C93.4477 27.9533 93.261 27.944 93.0744 27.944C92.785 27.944 92.4724 27.9533 92.1364 27.972C91.8097 27.9813 91.5717 27.9907 91.4224 28V27.706C91.609 27.706 91.763 27.664 91.8844 27.58C92.0057 27.4867 92.015 27.37 91.9124 27.23L88.1744 21.784C87.9877 21.5133 87.8384 21.336 87.7264 21.252C87.6144 21.1587 87.4744 21.1027 87.3064 21.084V20.79C87.3997 20.7993 87.5444 20.8133 87.7404 20.832C87.9364 20.8413 88.123 20.846 88.3004 20.846C88.599 20.846 88.9117 20.8413 89.2384 20.832C89.565 20.8133 89.803 20.7993 89.9524 20.79ZM90.3304 24.346C90.3304 24.346 90.3397 24.3787 90.3584 24.444C90.377 24.5 90.3957 24.5607 90.4144 24.626C90.4424 24.6913 90.4564 24.724 90.4564 24.724L89.2944 26.236C89.0517 26.5533 88.921 26.8193 88.9024 27.034C88.893 27.2487 88.9817 27.412 89.1684 27.524C89.355 27.6267 89.6117 27.692 89.9384 27.72V28C89.7797 27.9907 89.6024 27.986 89.4064 27.986C89.2104 27.9767 89.019 27.972 88.8324 27.972C88.655 27.9627 88.4917 27.958 88.3424 27.958C88.1277 27.958 87.9317 27.9627 87.7544 27.972C87.5864 27.972 87.4277 27.9813 87.2784 28V27.72C87.4557 27.7013 87.6377 27.622 87.8244 27.482C88.0204 27.3327 88.249 27.0853 88.5104 26.74L90.3304 24.346ZM93.7884 20.79V21.07C93.611 21.0887 93.415 21.182 93.2004 21.35C92.995 21.5087 92.7804 21.742 92.5564 22.05L90.9464 24.276C90.9464 24.276 90.937 24.248 90.9184 24.192C90.8997 24.1267 90.881 24.066 90.8624 24.01C90.8437 23.9447 90.8344 23.912 90.8344 23.912L91.9264 22.386C92.1317 22.0967 92.2624 21.8587 92.3184 21.672C92.3744 21.4853 92.3417 21.3453 92.2204 21.252C92.1084 21.1493 91.8844 21.0887 91.5484 21.07V20.79C91.791 20.7993 91.9917 20.8087 92.1504 20.818C92.3184 20.8273 92.5097 20.832 92.7244 20.832C92.939 20.832 93.1304 20.8273 93.2984 20.818C93.4757 20.8087 93.639 20.7993 93.7884 20.79ZM96.9041 18.466V20.804H98.9761V21.084H96.9041V26.502C96.9041 26.9407 96.9835 27.2487 97.1421 27.426C97.3008 27.6033 97.5201 27.692 97.8001 27.692C98.0801 27.692 98.3228 27.58 98.5281 27.356C98.7335 27.1227 98.9108 26.7353 99.0601 26.194L99.3401 26.264C99.2468 26.8053 99.0601 27.2627 98.7801 27.636C98.5095 28.0093 98.0895 28.196 97.5201 28.196C97.2028 28.196 96.9415 28.154 96.7361 28.07C96.5308 27.9953 96.3488 27.8833 96.1901 27.734C95.9848 27.5193 95.8401 27.2627 95.7561 26.964C95.6815 26.6653 95.6441 26.2687 95.6441 25.774V21.084H94.3001V20.804H95.6441V18.662C95.8775 18.6527 96.1015 18.634 96.3161 18.606C96.5308 18.578 96.7268 18.5313 96.9041 18.466Z" fill="white" fill-opacity="0.8"/>
<line x1="124.5" x2="124.5" y2="44" stroke="#292929" stroke-opacity="0.7"/>
<path d="M159.606 18.088V18.368C159.289 18.3773 159.046 18.4147 158.878 18.48C158.719 18.536 158.612 18.648 158.556 18.816C158.5 18.9747 158.472 19.2267 158.472 19.572V26.516C158.472 26.852 158.5 27.104 158.556 27.272C158.612 27.44 158.719 27.552 158.878 27.608C159.046 27.664 159.289 27.7013 159.606 27.72V28C159.391 27.9813 159.121 27.972 158.794 27.972C158.477 27.9627 158.155 27.958 157.828 27.958C157.464 27.958 157.123 27.9627 156.806 27.972C156.489 27.972 156.232 27.9813 156.036 28V27.72C156.353 27.7013 156.591 27.664 156.75 27.608C156.918 27.552 157.03 27.44 157.086 27.272C157.142 27.104 157.17 26.852 157.17 26.516V18.816L157.226 18.858L153.796 28.07H153.572L150.044 18.984V26.376C150.044 26.712 150.072 26.978 150.128 27.174C150.193 27.3607 150.315 27.496 150.492 27.58C150.679 27.6547 150.954 27.7013 151.318 27.72V28C151.15 27.9813 150.931 27.972 150.66 27.972C150.389 27.9627 150.133 27.958 149.89 27.958C149.657 27.958 149.419 27.9627 149.176 27.972C148.943 27.972 148.747 27.9813 148.588 28V27.72C148.905 27.7013 149.143 27.6547 149.302 27.58C149.47 27.496 149.582 27.3607 149.638 27.174C149.694 26.978 149.722 26.712 149.722 26.376V19.572C149.722 19.2267 149.694 18.9747 149.638 18.816C149.582 18.648 149.47 18.536 149.302 18.48C149.143 18.4147 148.905 18.3773 148.588 18.368V18.088C148.747 18.0973 148.943 18.1067 149.176 18.116C149.419 18.1253 149.657 18.13 149.89 18.13C150.095 18.13 150.305 18.1253 150.52 18.116C150.744 18.1067 150.931 18.0973 151.08 18.088L154.258 26.46L154.02 26.572L157.17 18.13C157.282 18.13 157.389 18.13 157.492 18.13C157.604 18.13 157.716 18.13 157.828 18.13C158.155 18.13 158.477 18.1253 158.794 18.116C159.121 18.1067 159.391 18.0973 159.606 18.088ZM163.785 20.594C164.383 20.594 164.919 20.7247 165.395 20.986C165.871 21.2473 166.249 21.658 166.529 22.218C166.819 22.778 166.963 23.506 166.963 24.402C166.963 25.298 166.819 26.026 166.529 26.586C166.249 27.1367 165.871 27.5427 165.395 27.804C164.919 28.0653 164.383 28.196 163.785 28.196C163.197 28.196 162.661 28.0653 162.175 27.804C161.699 27.5427 161.317 27.1367 161.027 26.586C160.747 26.026 160.607 25.298 160.607 24.402C160.607 23.506 160.747 22.778 161.027 22.218C161.317 21.658 161.699 21.2473 162.175 20.986C162.661 20.7247 163.197 20.594 163.785 20.594ZM163.785 20.874C163.253 20.874 162.815 21.1493 162.469 21.7C162.133 22.2507 161.965 23.1513 161.965 24.402C161.965 25.6527 162.133 26.5533 162.469 27.104C162.815 27.6453 163.253 27.916 163.785 27.916C164.317 27.916 164.751 27.6453 165.087 27.104C165.433 26.5533 165.605 25.6527 165.605 24.402C165.605 23.1513 165.433 22.2507 165.087 21.7C164.751 21.1493 164.317 20.874 163.785 20.874ZM170.279 18.466V20.804H172.351V21.084H170.279V26.502C170.279 26.9407 170.358 27.2487 170.517 27.426C170.676 27.6033 170.895 27.692 171.175 27.692C171.455 27.692 171.698 27.58 171.903 27.356C172.108 27.1227 172.286 26.7353 172.435 26.194L172.715 26.264C172.622 26.8053 172.435 27.2627 172.155 27.636C171.884 28.0093 171.464 28.196 170.895 28.196C170.578 28.196 170.316 28.154 170.111 28.07C169.906 27.9953 169.724 27.8833 169.565 27.734C169.36 27.5193 169.215 27.2627 169.131 26.964C169.056 26.6653 169.019 26.2687 169.019 25.774V21.084H167.675V20.804H169.019V18.662C169.252 18.6527 169.476 18.634 169.691 18.606C169.906 18.578 170.102 18.5313 170.279 18.466ZM174.57 17.29C174.813 17.29 175.023 17.3787 175.2 17.556C175.378 17.7333 175.466 17.9433 175.466 18.186C175.466 18.4287 175.378 18.6387 175.2 18.816C175.023 18.9933 174.813 19.082 174.57 19.082C174.328 19.082 174.118 18.9933 173.94 18.816C173.763 18.6387 173.674 18.4287 173.674 18.186C173.674 17.9433 173.763 17.7333 173.94 17.556C174.118 17.3787 174.328 17.29 174.57 17.29ZM175.298 20.636V26.698C175.298 27.09 175.378 27.356 175.536 27.496C175.704 27.636 175.98 27.706 176.362 27.706V28C176.204 27.9907 175.961 27.9813 175.634 27.972C175.317 27.9533 174.995 27.944 174.668 27.944C174.351 27.944 174.029 27.9533 173.702 27.972C173.376 27.9813 173.133 27.9907 172.974 28V27.706C173.357 27.706 173.628 27.636 173.786 27.496C173.954 27.356 174.038 27.09 174.038 26.698V22.316C174.038 21.896 173.964 21.588 173.814 21.392C173.665 21.1867 173.385 21.084 172.974 21.084V20.79C173.273 20.818 173.562 20.832 173.842 20.832C174.113 20.832 174.37 20.818 174.612 20.79C174.864 20.7527 175.093 20.7013 175.298 20.636ZM180.506 20.594C181.103 20.594 181.64 20.7247 182.116 20.986C182.592 21.2473 182.97 21.658 183.25 22.218C183.539 22.778 183.684 23.506 183.684 24.402C183.684 25.298 183.539 26.026 183.25 26.586C182.97 27.1367 182.592 27.5427 182.116 27.804C181.64 28.0653 181.103 28.196 180.506 28.196C179.918 28.196 179.381 28.0653 178.896 27.804C178.42 27.5427 178.037 27.1367 177.748 26.586C177.468 26.026 177.328 25.298 177.328 24.402C177.328 23.506 177.468 22.778 177.748 22.218C178.037 21.658 178.42 21.2473 178.896 20.986C179.381 20.7247 179.918 20.594 180.506 20.594ZM180.506 20.874C179.974 20.874 179.535 21.1493 179.19 21.7C178.854 22.2507 178.686 23.1513 178.686 24.402C178.686 25.6527 178.854 26.5533 179.19 27.104C179.535 27.6453 179.974 27.916 180.506 27.916C181.038 27.916 181.472 27.6453 181.808 27.104C182.153 26.5533 182.326 25.6527 182.326 24.402C182.326 23.1513 182.153 22.2507 181.808 21.7C181.472 21.1493 181.038 20.874 180.506 20.874ZM189.45 20.594C189.805 20.594 190.099 20.6407 190.332 20.734C190.575 20.8273 190.775 20.958 190.934 21.126C191.111 21.3127 191.237 21.546 191.312 21.826C191.387 22.106 191.424 22.484 191.424 22.96V26.698C191.424 27.09 191.503 27.356 191.662 27.496C191.83 27.636 192.105 27.706 192.488 27.706V28C192.329 27.9907 192.087 27.9813 191.76 27.972C191.433 27.9533 191.116 27.944 190.808 27.944C190.5 27.944 190.197 27.9533 189.898 27.972C189.609 27.9813 189.389 27.9907 189.24 28V27.706C189.576 27.706 189.814 27.636 189.954 27.496C190.094 27.356 190.164 27.09 190.164 26.698V22.652C190.164 22.3627 190.141 22.0967 190.094 21.854C190.047 21.6113 189.94 21.4153 189.772 21.266C189.613 21.1167 189.366 21.042 189.03 21.042C188.638 21.042 188.293 21.154 187.994 21.378C187.705 21.602 187.476 21.91 187.308 22.302C187.149 22.6847 187.07 23.114 187.07 23.59V26.698C187.07 27.09 187.14 27.356 187.28 27.496C187.42 27.636 187.658 27.706 187.994 27.706V28C187.845 27.9907 187.621 27.9813 187.322 27.972C187.033 27.9533 186.734 27.944 186.426 27.944C186.118 27.944 185.801 27.9533 185.474 27.972C185.147 27.9813 184.905 27.9907 184.746 28V27.706C185.129 27.706 185.399 27.636 185.558 27.496C185.726 27.356 185.81 27.09 185.81 26.698V22.316C185.81 21.896 185.735 21.588 185.586 21.392C185.437 21.1867 185.157 21.084 184.746 21.084V20.79C185.045 20.818 185.334 20.832 185.614 20.832C185.885 20.832 186.141 20.818 186.384 20.79C186.636 20.7527 186.865 20.7013 187.07 20.636V22.288C187.313 21.6533 187.649 21.2147 188.078 20.972C188.517 20.72 188.974 20.594 189.45 20.594Z" fill="#88939E"/>
</svg>
