<svg width="23" height="21" viewBox="0 0 23 21" fill="none" xmlns="http://www.w3.org/2000/svg">
<path fill-rule="evenodd" clip-rule="evenodd" d="M11.3431 8.85704C11.3584 8.83609 11.3749 8.81591 11.3926 8.7966L19.1295 0.346261C19.4165 0.0328404 19.9127 0.0400054 20.1905 0.36158L21.8575 2.29136C22.0935 2.56458 22.0869 2.97141 21.8421 3.23682L12.4381 13.4334C12.3683 13.5091 12.2895 13.5649 12.2063 13.6026V20.4C12.2063 20.7313 11.9376 21 11.6063 21H0.604133C0.0695927 21 -0.198112 20.3537 0.179869 19.9757L11.182 8.97358C11.2317 8.92384 11.2861 8.88528 11.3431 8.85704ZM12.2063 9.38875L19.6469 1.26206L20.9315 2.74916L12.2063 12.2098V9.38875ZM11.2063 10.3635L1.56982 20H11.2063V10.3635Z" fill="#373737"/>
</svg>
