<svg width="19" height="19" viewBox="0 0 19 19" fill="none" xmlns="http://www.w3.org/2000/svg">
<path fill-rule="evenodd" clip-rule="evenodd" d="M10.5142 3.19075L1.17851 0.310272L1.16457 0.296333L1.15699 0.303692L1.07392 0.27816C0.917484 0.229879 0.747214 0.272139 0.631473 0.38788C0.515731 0.503622 0.473475 0.673889 0.521753 0.83033L0.545279 0.906709L0.535357 0.916411L0.55409 0.935366L3.43457 10.2705C3.96645 11.9941 5.3977 13.2739 7.16997 13.6102L10.3802 14.0273L14.3557 18.0028C14.6837 18.3308 15.2155 18.3308 15.5434 18.0028L18.1918 15.3545C18.5165 15.0297 18.5202 14.5043 18.1999 14.1751L14.2711 10.1363L13.8541 6.92607C13.5177 5.15394 12.2379 3.72274 10.5142 3.19075ZM8.25774 6.30736C7.78718 5.83679 7.02157 5.83682 6.55103 6.30736C6.08047 6.77793 6.0805 7.54353 6.55103 8.01407C7.0216 8.48463 7.78718 8.48464 8.25774 8.01407C8.72831 7.5435 8.72828 6.77789 8.25774 6.30736ZM12.9862 7.09066L13.5153 10.8917L17.2662 14.7688L14.9496 17.0854L11.1356 13.2714L7.33457 12.7423C5.88456 12.4671 4.71344 11.42 4.27819 10.0097L1.89956 2.30054L5.61873 6.07502C5.12989 6.87898 5.23215 7.94418 5.92636 8.6384C6.74124 9.45327 8.06704 9.45327 8.88192 8.6384C9.6968 7.82352 9.69668 6.4976 8.88192 5.68284C8.16093 4.96185 7.04008 4.87935 6.22703 5.43418L2.48627 1.6379L10.2534 4.03454C11.6639 4.4694 12.7109 5.64051 12.9862 7.09066Z" fill="#373737"/>
<path fill-rule="evenodd" clip-rule="evenodd" d="M8.25774 6.30736C7.78718 5.83679 7.02157 5.83682 6.55103 6.30736C6.08047 6.77793 6.0805 7.54353 6.55103 8.01407C7.0216 8.48463 7.78718 8.48464 8.25774 8.01407C8.72831 7.5435 8.72828 6.77789 8.25774 6.30736Z" fill="#373737"/>
</svg>
