<svg width="386" height="18" viewBox="0 0 386 18" fill="none" xmlns="http://www.w3.org/2000/svg">
<path d="M13.5 18H12V16.5V15H10.5H9V13.5V12H10.5H12V10.5V9V7.5V6V4.5V3V1.5V0H13.5H15V1.5V3V4.5V6V7.5V9V10.5V12V13.5V15V16.5V18H13.5ZM1.5 18H0V16.5V15V13.5V12V10.5V9V7.5V6V4.5V3V1.5V0H1.5H3V1.5V3V4.5V6V7.5V9V10.5V12H4.5H6V13.5V15H4.5H3V16.5V18H1.5ZM9 12H7.5H6V10.5V9H7.5H9V10.5V12ZM29.5 18H28V16.5V15V13.5V12V10.5V9H26.5H25H23.5H22H20.5V10.5V12V13.5V15V16.5V18H19H17.5V16.5V15V13.5V12V10.5V9V7.5V6V4.5V3H19H20.5V4.5V6H22H23.5H25H26.5H28V4.5V3H29.5H31V4.5V6V7.5V9V10.5V12V13.5V15V16.5V18H29.5ZM28 3H26.5H25H23.5H22H20.5V1.5V0H22H23.5H25H26.5H28V1.5V3ZM50 18H48.5V16.5V15H50H51.5V16.5V18H50ZM35 18H33.5V16.5V15V13.5V12V10.5V9V7.5V6V4.5V3V1.5V0H35H36.5H38H39.5H41H42.5H44H45.5H47V1.5V3H48.5H50V4.5V6H48.5H47V4.5V3H45.5H44H42.5H41H39.5H38H36.5V4.5V6H38H39.5H41H42.5H44H45.5H47V7.5V9H45.5V10.5V12H47H48.5V13.5V15H47H45.5V13.5V12H44H42.5V10.5V9H41H39.5H38H36.5V10.5V12V13.5V15V16.5V18H35ZM67.5 18H66V16.5V15V13.5V12V10.5H64.5H63V9V7.5H64.5H66V6V4.5V3V1.5V0H67.5H69V1.5V3V4.5V6V7.5V9V10.5V12V13.5V15V16.5V18H67.5ZM55.5 18H54V16.5V15V13.5V12V10.5V9V7.5V6V4.5V3V1.5V0H55.5H57V1.5H58.5H60V3V4.5H61.5H63V6V7.5H61.5H60V6V4.5H58.5H57V6V7.5V9V10.5V12V13.5V15V16.5V18H55.5ZM77.5 18H76H74.5H73V16.5V15H74.5V13.5V12V10.5V9V7.5V6V4.5V3H73V1.5V0H74.5H76H77.5H79V1.5V3H77.5V4.5V6V7.5V9V10.5V12V13.5V15H79V16.5V18H77.5ZM95 18H93.5V16.5V15V13.5V12V10.5H92H90.5V9V7.5H92H93.5V6V4.5V3V1.5V0H95H96.5V1.5V3V4.5V6V7.5V9V10.5V12V13.5V15V16.5V18H95ZM83 18H81.5V16.5V15V13.5V12V10.5V9V7.5V6V4.5V3V1.5V0H83H84.5V1.5H86H87.5V3V4.5H89H90.5V6V7.5H89H87.5V6V4.5H86H84.5V6V7.5V9V10.5V12V13.5V15V16.5V18H83ZM111 18H109.5H108H106.5H105H103.5H102V16.5V15H103.5H105H106.5H108H109.5H111H112.5V16.5V18H111ZM112.5 15V13.5V12V10.5V9H111H109.5V7.5V6H111H112.5H114H115.5V7.5V9V10.5V12V13.5V15H114H112.5ZM102 15H100.5H99V13.5V12V10.5V9V7.5V6V4.5V3H100.5H102V4.5V6V7.5V9V10.5V12V13.5V15ZM114 3H112.5H111H109.5H108H106.5H105H103.5H102V1.5V0H103.5H105H106.5H108H109.5H111H112.5H114H115.5V1.5V3H114ZM121 18H119.5V16.5V15H121H122.5V16.5V18H121ZM121 7.5H119.5V6V4.5H121H122.5V6V7.5H121ZM145.5 18H144H142.5H141H139.5H138H136.5V16.5V15H138H139.5H141H142.5H144H145.5H147V16.5V18H145.5ZM147 15V13.5V12V10.5V9H145.5H144V7.5V6H145.5H147H148.5H150V7.5V9V10.5V12V13.5V15H148.5H147ZM136.5 15H135H133.5V13.5V12V10.5V9V7.5V6V4.5V3H135H136.5V4.5V6V7.5V9V10.5V12V13.5V15ZM148.5 3H147H145.5H144H142.5H141H139.5H138H136.5V1.5V0H138H139.5H141H142.5H144H145.5H147H148.5H150V1.5V3H148.5ZM169 18H167.5V16.5V15H169H170.5V16.5V18H169ZM154 18H152.5V16.5V15V13.5V12V10.5V9V7.5V6V4.5V3V1.5V0H154H155.5H157H158.5H160H161.5H163H164.5H166V1.5V3H167.5H169V4.5V6H167.5H166V4.5V3H164.5H163H161.5H160H158.5H157H155.5V4.5V6H157H158.5H160H161.5H163H164.5H166V7.5V9H164.5V10.5V12H166H167.5V13.5V15H166H164.5V13.5V12H163H161.5V10.5V9H160H158.5H157H155.5V10.5V12V13.5V15V16.5V18H154ZM185 18H183.5V16.5V15V13.5V12V10.5V9H182H180.5H179H177.5H176V10.5V12V13.5V15V16.5V18H174.5H173V16.5V15V13.5V12V10.5V9V7.5V6V4.5V3H174.5H176V4.5V6H177.5H179H180.5H182H183.5V4.5V3H185H186.5V4.5V6V7.5V9V10.5V12V13.5V15V16.5V18H185ZM183.5 3H182H180.5H179H177.5H176V1.5V0H177.5H179H180.5H182H183.5V1.5V3ZM190.5 18H189V16.5V15V13.5V12V10.5V9V7.5V6V4.5V3V1.5V0H190.5H192H193.5H195H196.5H198H199.5H201V1.5V3H202.5H204V4.5V6H202.5H201V4.5V3H199.5H198H196.5H195H193.5H192V4.5V6H193.5H195H196.5H198H199.5H201V7.5V9H199.5H198H196.5H195H193.5H192V10.5V12V13.5V15V16.5V18H190.5ZM220 18H218.5V16.5V15V13.5V12V10.5H217H215.5H214H212.5H211H209.5V12V13.5V15V16.5V18H208H206.5V16.5V15V13.5V12V10.5V9V7.5V6V4.5V3V1.5V0H208H209.5V1.5V3V4.5V6V7.5H211H212.5H214H215.5H217H218.5V6V4.5V3V1.5V0H220H221.5V1.5V3V4.5V6V7.5V9V10.5V12V13.5V15V16.5V18H220ZM230 18H228.5H227H225.5V16.5V15H227V13.5V12V10.5V9V7.5V6V4.5V3H225.5V1.5V0H227H228.5H230H231.5V1.5V3H230V4.5V6V7.5V9V10.5V12V13.5V15H231.5V16.5V18H230ZM247.5 18H246H244.5H243H241.5H240H238.5H237V16.5V15H238.5H240H241.5H243H244.5H246H247.5V13.5V12H249H250.5V13.5V15H249V16.5V18H247.5ZM237 15H235.5H234V13.5V12V10.5V9V7.5V6V4.5V3H235.5H237V4.5V6V7.5V9V10.5V12V13.5V15ZM249 6H247.5V4.5V3H246H244.5H243H241.5H240H238.5H237V1.5V0H238.5H240H241.5H243H244.5H246H247.5H249V1.5V3H250.5V4.5V6H249ZM275 18H273.5H272H270.5H269H267.5H266H264.5V16.5V15H266H267.5H269H270.5H272H273.5H275V13.5V12H276.5H278V13.5V15H276.5V16.5V18H275ZM264.5 15H263H261.5V13.5V12V10.5V9V7.5V6V4.5V3H263H264.5V4.5V6V7.5V9V10.5V12V13.5V15ZM276.5 6H275V4.5V3H273.5H272H270.5H269H267.5H266H264.5V1.5V0H266H267.5H269H270.5H272H273.5H275H276.5V1.5V3H278V4.5V6H276.5ZM294 18H292.5H291H289.5H288H286.5H285H283.5V16.5V15H285H286.5H288H289.5H291H292.5H294H295.5V16.5V18H294ZM295.5 15V13.5V12V10.5V9V7.5V6V4.5V3H297H298.5V4.5V6V7.5V9V10.5V12V13.5V15H297H295.5ZM283.5 15H282H280.5V13.5V12V10.5V9V7.5V6V4.5V3H282H283.5V4.5V6V7.5V9V10.5V12V13.5V15ZM295.5 3H294H292.5H291H289.5H288H286.5H285H283.5V1.5V0H285H286.5H288H289.5H291H292.5H294H295.5V1.5V3ZM314.5 18H313V16.5V15V13.5V12V10.5H311.5H310V9V7.5H311.5H313V6V4.5V3V1.5V0H314.5H316V1.5V3V4.5V6V7.5V9V10.5V12V13.5V15V16.5V18H314.5ZM302.5 18H301V16.5V15V13.5V12V10.5V9V7.5V6V4.5V3V1.5V0H302.5H304V1.5H305.5H307V3V4.5H308.5H310V6V7.5H308.5H307V6V4.5H305.5H304V6V7.5V9V10.5V12V13.5V15V16.5V18H302.5ZM326 18H324.5V16.5V15V13.5V12V10.5V9V7.5V6V4.5V3H323H321.5H320H318.5V1.5V0H320H321.5H323H324.5H326H327.5H329H330.5H332H333.5V1.5V3H332H330.5H329H327.5V4.5V6V7.5V9V10.5V12V13.5V15V16.5V18H326ZM349.5 18H348H346.5H345H343.5H342H340.5H339H337.5H336V16.5V15V13.5V12V10.5V9V7.5V6V4.5V3V1.5V0H337.5H339H340.5H342H343.5H345H346.5H348H349.5H351V1.5V3H349.5H348H346.5H345H343.5H342H340.5H339V4.5V6H340.5H342H343.5V7.5V9H342H340.5H339V10.5V12V13.5V15H340.5H342H343.5H345H346.5H348H349.5H351V16.5V18H349.5ZM367 18H365.5V16.5V15V13.5V12V10.5H364H362.5V9V7.5H364H365.5V6V4.5V3V1.5V0H367H368.5V1.5V3V4.5V6V7.5V9V10.5V12V13.5V15V16.5V18H367ZM355 18H353.5V16.5V15V13.5V12V10.5V9V7.5V6V4.5V3V1.5V0H355H356.5V1.5H358H359.5V3V4.5H361H362.5V6V7.5H361H359.5V6V4.5H358H356.5V6V7.5V9V10.5V12V13.5V15V16.5V18H355ZM378.5 18H377V16.5V15V13.5V12V10.5V9V7.5V6V4.5V3H375.5H374H372.5H371V1.5V0H372.5H374H375.5H377H378.5H380H381.5H383H384.5H386V1.5V3H384.5H383H381.5H380V4.5V6V7.5V9V10.5V12V13.5V15V16.5V18H378.5Z" fill="#23D503"/>
</svg>
